<svg xmlns="http://www.w3.org/2000/svg" width="12.87" height="8.068" viewBox="0 0 12.87 8.068">
  <path id="Tracé_973" data-name="Tracé 973" d="M12.494,7.993a.339.339,0,0,0,.267.068.152.152,0,0,0,.108-.168V.175a.153.153,0,0,0-.108-.168.34.34,0,0,0-.267.068L6.568,3.8a.337.337,0,0,0-.108.1V.175A.153.153,0,0,0,6.352.008a.34.34,0,0,0-.267.068L.158,3.8a.255.255,0,0,0,0,.472L6.084,7.993a.339.339,0,0,0,.267.068.152.152,0,0,0,.108-.168V4.171a.339.339,0,0,0,.108.1Z" transform="translate(0 0)" fill="#a1a1a1"/>
</svg>
