<svg xmlns="http://www.w3.org/2000/svg" xmlns:xlink="http://www.w3.org/1999/xlink" width="50.608" height="34.304" viewBox="0 0 50.608 34.304">
  <defs>
    <filter id="vr" x="0" y="0" width="50.608" height="34.304" filterUnits="userSpaceOnUse">
      <feOffset dy="3" input="SourceAlpha"/>
      <feGaussianBlur stdDeviation="3" result="blur"/>
      <feFlood flood-opacity="0.161"/>
      <feComposite operator="in" in2="blur"/>
      <feComposite in="SourceGraphic"/>
    </filter>
  </defs>
  <g transform="matrix(1, 0, 0, 1, 0, 0)" filter="url(#vr)">
    <path id="vr-2" data-name="vr" d="M24.195,26.8l-3.261-3.261H17.673L14.413,26.8H11.152a3.261,3.261,0,0,1-3.261-3.261V13.761A3.261,3.261,0,0,1,11.152,10.5h16.3a3.261,3.261,0,0,1,3.261,3.261v9.782A3.261,3.261,0,0,1,27.456,26.8Zm11.413-4.891a1.63,1.63,0,1,1-3.261,0V15.391a1.63,1.63,0,1,1,3.261,0Zm-29.347,0a1.63,1.63,0,0,1-3.261,0V15.391a1.63,1.63,0,1,1,3.261,0Z" transform="translate(6 -4.5)" fill="#fff"/>
  </g>
</svg>
