<svg xmlns="http://www.w3.org/2000/svg" width="23.734" height="22.25" viewBox="0 0 23.734 22.25">
  <g id="map" transform="translate(0 -1.125)">
    <path id="Tracé_106" data-name="Tracé 106" d="M23.462,1.292a.742.742,0,0,1,.272.574V21.15a.742.742,0,0,1-.6.727L15.72,23.361a.744.744,0,0,1-.291,0L8.159,21.907.887,23.361A.742.742,0,0,1,0,22.634V3.35a.742.742,0,0,1,.6-.727L8.013,1.139a.742.742,0,0,1,.291,0l7.272,1.454,7.272-1.454a.742.742,0,0,1,.616.153ZM14.834,3.959,8.9,2.772V20.543l5.933,1.187Zm1.483,17.771,5.933-1.187V2.772L16.317,3.959Zm-8.9-1.187V2.772L1.483,3.959V21.729Z" fill="#fff" fill-rule="evenodd"/>
  </g>
</svg>
