<svg id="map" xmlns="http://www.w3.org/2000/svg" width="19.606" height="18.381" viewBox="0 0 19.606 18.381">
  <path id="Tracé_106" data-name="Tracé 106" d="M19.382,1.263a.613.613,0,0,1,.224.474v15.93a.613.613,0,0,1-.493.6l-6.127,1.225a.615.615,0,0,1-.24,0l-6.007-1.2-6.007,1.2a.613.613,0,0,1-.733-.6V2.963a.613.613,0,0,1,.493-.6L6.62,1.137a.613.613,0,0,1,.24,0l6.007,1.2,6.007-1.2a.613.613,0,0,1,.509.126Zm-7.128,2.2-4.9-.98v14.68l4.9.98Zm1.225,14.68,4.9-.98V2.485l-4.9.98Zm-7.352-.98V2.485l-4.9.98v14.68Z" transform="translate(0 -1.125)" fill="#4bcb02" fill-rule="evenodd"/>
</svg>
