<svg xmlns="http://www.w3.org/2000/svg" width="27" height="15.75" viewBox="0 0 27 15.75">
  <path id="Tracé_190" data-name="Tracé 190" d="M13.5,23.625A1.125,1.125,0,0,1,14.625,22.5h6.75a1.125,1.125,0,0,1,0,2.25h-6.75A1.125,1.125,0,0,1,13.5,23.625ZM9,16.875a1.125,1.125,0,0,1,1.125-1.125h15.75a1.125,1.125,0,0,1,0,2.25H10.125A1.125,1.125,0,0,1,9,16.875Zm-4.5-6.75A1.125,1.125,0,0,1,5.625,9h24.75a1.125,1.125,0,0,1,0,2.25H5.625A1.125,1.125,0,0,1,4.5,10.125Z" transform="translate(-4.5 -9)" fill="#fff" fill-rule="evenodd"/>
</svg>
