<svg id="calendar-fill" xmlns="http://www.w3.org/2000/svg" width="30" height="30" viewBox="0 0 30 30" fill="#fff">
  <path id="Tracé_4" data-name="Tracé 4" d="M7.575,0C8.031,0,8.4.5,8.4,1.125V2.25c0,.621-.369,1.125-.825,1.125s-.825-.5-.825-1.125V1.125C6.75.5,7.119,0,7.575,0Zm14.85,0c.456,0,.825.5.825,1.125V2.25c0,.621-.369,1.125-.825,1.125s-.825-.5-.825-1.125V1.125C21.6.5,21.969,0,22.425,0Z" transform="translate(0)"  />
  <path id="Tracé_5" data-name="Tracé 5" d="M3.75,2.25A3.725,3.725,0,0,0,0,5.95V7.8H30V5.95a3.725,3.725,0,0,0-3.75-3.7ZM30,9.65H0V26.3A3.725,3.725,0,0,0,3.75,30h22.5A3.725,3.725,0,0,0,30,26.3Z" transform="translate(0 0)" />
</svg>
