<svg xmlns="http://www.w3.org/2000/svg" xmlns:xlink="http://www.w3.org/1999/xlink" width="1307.933" height="1275.996" viewBox="0 0 1307.933 1275.996">
  <defs>
    <clipPath id="clip-path">
      <rect id="Rectangle_1" data-name="Rectangle 1" width="1307.933" height="1275.996" fill="#404040" stroke="#fff" stroke-linecap="round" stroke-linejoin="round" stroke-width="1"/>
    </clipPath>
  </defs>
  <g id="ALG_001" data-name="ALG 001" style="mix-blend-mode: screen;isolation: isolate">
    <path id="1" data-name="Adrar" d="M577.967,951.7l6.137-1.982-1.354-7.892L574.2,921.48l-6.137-8.9.085-16.737-4.586-15.967-6.806-13.808-16.633-16.893-4.155-19.8-12.058-1.278-11.362,1.84L514.262,674.8l-.707-104.79-23.4-33.13-7.406-16.48,20.425-20.974,3.251-6.683,7.193-2.2,2.411,2.219,4.772-.568.377,2.247,6.415-4.589,1.267-24.25,7.005-17.567-5.045-7.589-.136-16.964,5.072-8.67,2.206-27.507,8.64-13.737,3.011-9.582,2.14-28.923,3.057-13.33-11.67-64.819,7.218-36.264,1.862-78.124-57.56,35.988-43.176,30.512-23.545,26.466-10.824,18.861L389.3,273.931l-4.182,14.318,2.784,18.571-1.663,7.428-15.883,13.464-30.561,1.245-36.155,9.885L285,364.228l-17.843,13.448-4.728,10.286-16.778,20.551-9.194,29.005,3.18,3.423L230.57,470.85l-4.859,2.894-20.982-1.534L194.2,476.536l-6.331,5.411-19.6,26.54-8.293,18.342-38.707-.647L101.6,545.155,66.22,556.724,169.6,637.1,419.141,821.6l1.087,5.392,75.727,50.779,1.55,8.08-2.244,15.735,1.264,3.2,8.515-.715,4.3,5.509,17.346,6.112,2.443,11.823,8.752,7.969,4.824-.109,2.716,4.182,2.774-1.542,3.4,1.3,2.17-1.078,3.494,3.145,5.129-5.345,4.261.966,6.729,6.292Z" transform="translate(114.553 246.558)" fill="#404040" stroke="#fff" stroke-linecap="round" stroke-linejoin="round" stroke-width="1"/>
    <path id="2" data-name="Chlef" d="M273.234,61.67l.693-4.8-3.462-2.479L268.6,50l.7-3-2.184.489-1.854-1.919-.011-2.782,3.631-2.419L263.9,38.909l3.265-3.191-4.084-4.431.355-3.2,6.085-4.477,3-6.735-11.829,1.785L253.4,16.786l-4.341,3.279-11.487.86-8.34,3.227-2.7,4.605-8.5,3.407-2.73,8.962,5.61.876,5.932-2.184,1.275,5.17,1.466.057-2.258,4.605,1.39-.429,1.414,5.452,4.846-1.81-.945.666,1.616.112,1.477,3.219,4.267,2.692,7.747-2.219,5.929,8.97.164-3.86,1.414-.909-1.048-.95,6.175-1.693.1-2.361,3.328-3.175,2.828,5.121Z" transform="translate(372.443 29.037)" fill="#404040" stroke="#fff" stroke-linecap="round" stroke-linejoin="round" stroke-width="1"/>
    <path id="3" data-name="Laghout" d="M413.765,182.312l-8.711-14.67L394.11,156.954l-4.068-2.9-22.18-8.356-3.846-6.355-10.876-9.795-14.313-4.109L334.45,116.7l.4-3.309-6.5-18.315-3.418,1.182.339-1.179L321.3,93.006l-6.189,6.251.074,3.953-1.9-.715-6.161,2.907-3.3-.887-9.216-13.008-1.209.238-3.4-9.8-1.545-17.28-8.231,1.016-1.19,2.85-5.4,2.419-6.407,7-13.311,4.786-5.02,5.7-1,6.655-4.488,2.667-.745-3.112-10.305,6.082,2.206,3.672-5.992,3.986,2.359,3.988-.45,2.7,6.022,2.642,4.4,4.9,9.544-2.233,4.99,4.324,1.545,4.234-.674,7.251,3.977,1.122.339,2.705,3.115,2.754-2.239,3.917-.781,7.8,8.525.783-.565,4.567,9.609,3.107,5.659-1.234-.554,10.649-10.911.363,1.75,2.416-.4,4.174,8.5,17.922,29.551-2.582,14.659-4.384,23.341,5.566-.9-7.928-9.994-6.085,21.432-.991,2.588-2.006,1.193.871,1.138-2.061.83,1.4,2.468-1.056L375.961,181l2.1-1.152Z" transform="translate(395.41 111.858)" fill="#404040" stroke="#fff" stroke-linecap="round" stroke-linejoin="round" stroke-width="1"/>
    <path id="4" data-name="Oum El bouaghi" d="M419.1,42.525l1.914,1.054,1.452,5.779,4.412,2.017-2.11,1.878.385,2.984,3.576,7.259-11.048,4.425-5.127,7.641-1.7.306L409.051,73l-1.889-.161-.906-3.254-1.076-.857-1.633,1.641.486-1.581-3.584-2.528-1.117,3.822-2.864.838.175-5.9-4.832-2.394-.325,1.5-4.958-.734-2.612,5.482-4.5-1.316,1.117-2.774-1.679-1.447L367.849,64.99l-2.113-4.354-5.752-6.587L355.7,52.091l-7.289,3.317L347.448,54l1.267-1.051-1.46-1,.983-2.506-7.117-.726-.3-1.6-4.231,3.59-6.639-3.543,2.192-5.768,4.5-.62,1.952,1.392-.581-2.1,2.132.317,3.328-4.182.442-7.619,6.459-2.359-1.04,1.193,1.624,3.169,2.757,1.007-1.267-2.2,3.063,1.646,1.024-2.918,6.123-.434.718-3.942,3.945,3.183,9.885.18-.549,3.429,3.453,1.5-.538,2.613,2.73.453,7.6-3.745,1.862-4.846,3.431-.2,1.155,6.175,2.009.123,1.777,5.787,2.8,3.636,7.3,2.566-.085,4.032,7.685-.582-.966-4.2Z" transform="translate(570.779 41.07)" fill="#404040" stroke="#fff" stroke-linecap="round" stroke-linejoin="round" stroke-width="1"/>
    <path id="5" data-name="Batna" d="M408.024,110.86,406.293,105l2.214-2.17-1.671-1.321,1.362-1.581-3.672-6.161-2.189-.4,1.095-2.3-1.2-3.688,3.571-3.9-.631-7.193,4.485-3.808-2.869-.6.48-3.926-1.725-3.639,4.07-3.784,6.6-1.635,1.671-4.13-2.02-4.073.584-3.65-5.755-6.59L406.413,38.5l-7.291,3.317-.958-1.411,1.267-1.051-1.463-1,.985-2.506-7.12-.726-.3-1.6L387.3,37.106l-6.639-3.541-9.784-1.141-1.338,1.046-2.634,1.556,1.217,3.175-7.66-6.6-3.317.865-3.887,4.256.336,2.113,3.306,1.1-2.162,3.554-1.857-.65-1.37,1.477-6.262-2.591-.661,1.867-2.173-.213-3.773,2.984.639,2.733-2.129,4.8-3.077-.912-7.264,8.089-4.96,2.473-1.971-2.916-2.9-.033-2.258,2.514-.2-2.146L311.9,65.077l-5.31-4.635,2.244,12.012L307.8,79.4l-2.5,4.223-1.43-.508-3.24,3.2.527,1.654,8,.164,5.8,3.811,1.6-.931,5.509,2.64,1.993,3.008,2.779-1.289,4.1,1.933,1.518-.218.934-3.03,10.677-.276,4.875-2.6.445-2.55L347.6,85.972l-3.972-.764-.874-2.6,6.047.415,9.718-6.544,7.693,5.135,5.072-.6-6.134,5.793,2.711,3.748-2.255,3.89,2.086-.576,2.659,4.824,6.178-7.742,2.8,1.059-.235,3.238,5.817,1.905,1.87-3.953,5.618-.712,4.51-3.036,3.524,4.439L398.3,96.968l1.379,2.574-1.188,6.934,6.7,5.378Z" transform="translate(520.064 54.665)" fill="#404040" stroke="#fff" stroke-linecap="round" stroke-linejoin="round" stroke-width="1"/>
    <path id="6" data-name="Béjaïa" d="M313.194,40.045l-.917,3.068-5.5,2.509-.1,6.8-11.405,3-2.124-4.644.606-1.638-2.047-2.7,2.028-1.332.407-3.562-1.848-3.617,4.9-2.269,5.946-6.669-1.108-1.8,3.437-4.316-4.854-2.577.4-1.764,3.355-.983,1.925,1.469,1.832-1.783-.191-3.653L304.12,8.245l9.86-1.108,9.282,2.9,5.564,3.928,5.108.994-1.212,4.682L340.6,23.9l11.81-.846.079,3.6,2.5.53-.5,4.035-6.519,2.926.688,1.865-3.59,4.024,1.283,2.509-2.042,1.024-4.521.658.071-2.552-1.559.543.068-7.346,1.46-1.895-5.894-4-.1,1.226-2.536-.24-1.218,3.762-9.885-1.31-.131,3.683Z" transform="translate(504.624 12.345)" fill="#404040" stroke="#fff" stroke-linecap="round" stroke-linejoin="round" stroke-width="1"/>
    <path id="7" data-name="Biskra" d="M429.553,82.421l-2.831,1-6.7-5.381L421.2,71.1l-1.379-2.574,2.132-3.074-3.524-4.439-4.51,3.036-5.618.712-1.87,3.953-5.817-1.905.235-3.238-2.8-1.059-6.178,7.742-2.659-4.824-2.086.576,2.255-3.89-2.711-3.748,6.134-5.793-5.072.6-7.693-5.135-9.718,6.544-6.047-.415.874,2.6,3.972.764,1.791,2.662-.445,2.55-4.876,2.6-10.677.276-.934,3.03-1.518.218-4.1-1.933-2.779,1.289-1.993-3.008-5.509-2.64-1.6.931,1.22,9.536,1.493.83-1.466.18-1.865,4.33-14.842,4.452-2.572,4.1-2.733.47,3.541,2.962-2.79,1.493-1.793-1.215-5,3.112-13.125.123-2.391,4.977-5.978,5.009,1.422.824,1.141,8.414,3.319,3.47-.835,1.979,4.949,2.542-2.113,2.746-5.435,1.436-1.2,1.873,2.547,3.118,5.149.718,1.054,4.073,6.426,1.078,1.556,1.993-3.268-.005-3.754,4.024-3.663.339-1.087,1.433,1.231,1.884,17.938,7.726,2.954,4.018,8.9,1.709,1.062,2.6,5.361-.893,1.977,3.339,10.922,2.724-1.428,2.4.319,5.2,10.7,9.555,2.484-5.072,1.813-4.709-1.878-4.327-.955-12.634-2.956-5.708,2.345-10.922,5.372-12.817L350.541,119.1l1.917-5.056-3.276-3.7,5.157-3.625-1.963-1.712,3.017-1.717,6.243,4.149,32.562,3.47,14.493-3.56,15.653,5.588,3.961,3.8,4.515-1.586,4.712-5.995-1.411-5.258,2.858-5.564-.448-9.538,1.985-6.519-2.247.538,1.133-2.722-2.855-2.883,1.095-1.288-3.109.169L432.52,80.78Z" transform="translate(498.535 83.105)" fill="#404040" stroke="#fff" stroke-linecap="round" stroke-linejoin="round" stroke-width="1"/>
    <path id="8" data-name="Béchar" d="M346.384,122.5l.445,6.527,3.9.336-1.48,7.818,3.775.115.811,4.267,15.926-8.471,18.539,5.2,4.919-3.631,6.6,1.409,4.447-6.552-2.6,11.971-5.684-1.286-3.011,2.233-2.864,6.058-.377,11.4,1.854,6.227-1.87.18.489,2.64-1.643,2.307,2.607,3.227-3.391,3.3,3.407,5.5-2.768,3.287.1,5.091,2.326,4.977,7.966,6.421-2.236,8.135,38.3,32.5-23.543,26.464L400.5,289l-27.818,19.576L368.5,322.894l2.784,18.574-1.663,7.428L353.739,362.36,323.18,363.6l-36.155,9.885-18.64,25.385-17.84,13.445-4.731,10.289L229.037,443.16l-9.194,29.005,3.183,3.423L186.868,471l-8.192-6.6-15.929-19.377-.227-20.865-18.5-34.6L128.249,331.72l-15.88-8.659L89.411,322.1,75.824,310.686,87.33,295.993l.068-3.748,2.765-4.089,22.1-15.732,20.425-8.848,18.137-16.284,10.72-3.421,18.367-2.121,12.487-4.682L194,234.983l-2.744-4.69,1.938-5.258,1.2.742,4.786-6.033.161-5.826-.549-1.791-1.354,1.4-1.051-1.117-1.245-4.324-1.28.516.055-4.081-.068,4.895-1.821.576,1.329.639-2.124-.412.674-4.491-1.753-1.81-.325,2.724-1.676-.721.115,2.028-1.758-.677-.964,1.69,1.19-5.473-1.709-4,2-1.813-1.512-2.116,2.38-4.663,1.542,1.387,4.679-3.415-.328-16.759,50.085-9.511-5.807-16.459,1.665-6.12,18.773,1.122,8.209-3,11.078-.248,6.243,2.012,9.391-2.476,25.65,7.013L339.164,146l5.184-3.459-3.336-3.325-5.17.614,3.456-2.809-.227-8.506,3.134-5.28Z" transform="translate(131.168 211.913)" fill="#404040" stroke="#fff" stroke-linecap="round" stroke-linejoin="round" stroke-width="1"/>
    <path id="9" data-name="Blida" d="M299.117,25.206l.671-3.489-1.6-.737,1.048-1.13-1.283-2.34L299.42,16.2,297,17.155l-2.064-3.576-2.754,2.107-1.665-.827L288.6,19.792l-3.049.2.295-2.954-4.07,2.921L271.48,15.643l.925,2.793-5.763,1.635-4.032,4.5-2.9.382,1.212,2.189L259.7,28.885l-4.28-.824-2.831,3.994,8.17,5.749,4.119-2.967,7.9.56,4.28-3.213,1.832,4.111,4.038.022,2.37-2.637-.516-3.707,1.294,2.61,2-1.63,1.892,1.905,3.164-3.15.227-3.767,4.45.732,1.308-1.466Z" transform="translate(436.958 23.49)" fill="#404040" stroke="#fff" stroke-linecap="round" stroke-linejoin="round" stroke-width="1"/>
    <path id="10" data-name="Bouira" d="M314.134,54.808l4.01-3.093.505-6.511,4.663-2.351,2.17-3.39,3.718.248,2.135-2.5.6-1.641-2.047-2.7,2.031-1.332.407-3.563-1.851-3.614-6.86.726-.751-1.458-2.754,1.48-15.432.445-3.639-.9-2.552-4.469-2.137.109-2.43-3.377L281.05,14.979l-1.313,2.686-3.729,1.949-5.7-.319-.674,3.489,7.431,7.177,4.259-4.038,3.71,1.922-1.2,1.873,2.719,3.8-2.918,1.632L282.428,38.6l2.918,2.67-.494,2.208-3.89,1.127-.625,2.331,1.788,2.845-1.114,1.324-2.451,2.552-2.771-.041,1.31,2.132,7.608,1.185,3.841,7.231L290,61.963l4.193.418,1.791,2.522,2.926.606.953,2.744,2.189.131,3.467-3.317,6.937,2.43-1.212-3.781Z" transform="translate(466.439 25.912)" fill="#404040" stroke="#fff" stroke-linecap="round" stroke-linejoin="round" stroke-width="1"/>
    <path id="11" data-name="Tamanrasset" d="M393.688,280.412l.4-1.13-47.841-38.7-30.425,2.651-28.02,10.385-2.143,28.923-3.014,9.582-8.637,13.737-2.206,27.5-5.072,8.67.139,16.964,5.042,7.589-7,17.57L263.644,408.4l-6.415,4.584-.377-2.247-4.772.568-2.411-2.217-7.19,2.2-3.254,6.683L218.8,438.949l7.409,16.483,23.4,33.127.707,104.793L248.6,748.478l11.362-1.84,12.055,1.28,4.158,19.805L292.8,784.611l6.8,13.808,4.589,15.967-.085,16.737,6.137,8.9,8.553,20.346,1.354,7.892-6.137,1.982,4.056.153,7.352,3.906,8.427-.057,17.226,3.636,17.856,8.643-1.125,10.114,1.463,2.481-1.48,4.753,2.667,4.248-.975,2.694,2.506,5.867-4.021,4.256-1.021,4.671-5.7,7.818,1.387,3.167L376.6,947.251l165.186-37.593,103.889-102.98L821.294,678.8l-1.957-56.135-20.422-11.545-6.033.131-4.526-2.76L750.4,610.728l-35.186,26.245-46.891,11.356-17.04-11.99,5.383-6.093L641.437,596.5,638.6,566.634l.647-10.33L623.98,534.375,611.755,534l-7.739-5.946-10.06-17.032-4.444-11.378-13.819-16.764-16.186-44.061-4.188-3.09-.371-2.743-6.139-1.632-3.221-4.245,2.894-8.362,7.693-6.412-1.138-5.225L520.4,376.5l-.107-23.794-10.185-47.994,4.843-22.806-3.538-92.292Z" transform="translate(378.501 328.012)" fill="#404040" stroke="#fff" stroke-linecap="round" stroke-linejoin="round" stroke-width="1"/>
    <path id="12" data-name="Tébessa" d="M378.408,36.334l1.084-3.724,5.127,3.825,4.428-.085,5.741-6.421,3.426.426,6.822-3.036,5.94,2.951-1.81,3.505,1.278,1.133-.079,11.356,5.35,3.789.876,10.338,1.671,2.651-3.792,5.233.169,7.092,5.676,4.414,4.16.2-6.4,10.325-1.8,10.734-3.827,2.192,2.539,10.153,2.391,2.683-4.447,3.582L415.4,121.8l-3.786,3.745.622,1.87-2.992.317-3.011,4.567-14.608,8.138-2.009,11.6-22.546-1.136-11.638-4.057,2.11-13.876,5.757-10.75.068-4.638-1.736-2.61,2.042-5.468-2.37-6.514-3.47-.268-1.8,2.645-1.207,3.691,1.365-.4-.24,4.319-2.479-5.766,3.792-9.83,3.565-2.23,3.9-6.65-2.869-4.25L364.011,81l-2.083-1.564-.319-6.675,8.553-3.085,1.7-.308,5.127-7.638,11.048-4.428-3.576-7.259-.385-2.981,2.11-1.881-4.412-2.017-1.452-5.779Z" transform="translate(611.473 47.261)" fill="#404040" stroke="#fff" stroke-linecap="round" stroke-linejoin="round" stroke-width="1"/>
    <path id="13" data-name="Tlemcen" d="M223.518,60.786l-1.875.191-.715-2.484-9.522-4.772-.906.9-1.016-2.107-2.951,1.242-6.383-2.165-2.506,3.647-2.956.723-2.869-1.824.551-2.6-2.312-1.7-10.914,7.99-1.832-.969-5.935,3.189-9.41.674-5.018-2.3-3.186,1.127-.281,2.6,7.1,6.686,2.883,2.187,3.789-.6.074,4.068,4.417,2.623.24,2.408,8.539,4.687-6.827,8.76,2.1.857,3.74,6.5,3.505,1.589-5.785,7,4.319,5.888-.579,4.93,3.27,10.254,9.855-7.152,13.633.06,3.344-3.844,4.174-1.319,16.633-15.378-.988-2.162-2.613-.543,4.4-2.6,3.508-7.515-.631-1.87,1.357.1-.748-2.744-6.483.743,1.179-8.719-3.213.655,2.195-3.1-3.251-.126-1.381-4.99,3.584-5.8Z" transform="translate(265.509 86.207)" fill="#404040" stroke="#fff" stroke-linecap="round" stroke-linejoin="round" stroke-width="1"/>
    <path id="14" data-name="Tiaret" d="M302.511,50.418l-3.62.715.6,3.811L318,66.156l2.866,5.018L328.2,64.9l2.869,2.173.9,3.071,4.769,1.141-.022,4.152-1.848.707-3.06,6.145,3.9,3.489-8.809,3.481-3.953,12.721-4.013,1.253.459,6.625-8.228,1.018-1.19,2.847-5.4,2.421-6.41,7-13.311,4.788-5.02,5.7-1,6.655-4.488,2.667-.745-3.109-10.305,6.082,2.2,3.672-5.992,3.986-3.055-4.305-.587-5.031-15.126.805,1.835-13.33-10.843-2.258,4.523-7.936-8.121-3.341-.863-1.45,2.061-1.45-1.228-3.221-2.894,1.25-4.725-8.367,1.051-4.663-1.518-2.52,8.629-6.358-4.351-6.639-3.833-1.725-.767-2.705-9,1.059,2.924-4.832,4.237-3-.672-2.591,3.208-3.849,2.956-.44,4.152,2.154,3.038-.961,2.383-5.749,1.881-.767-4.07-4.242,2.46-.494,4.715-7.854,3.317-.268.306-2.369,2.214.3.448-2.5,5.618.565,1.551-2.689,3.953-1.564,3.672,4.559,1.611-6.276,3.464,2.542,1.469-.827,3.694,2.086.167,3.863,5.332-.475,2.853,4.693,2.219.42.47-2.858,2.618,2.656,10.363-1.179,6.647-3.65-1.526,1.829,4.231.186-.079,2.6Z" transform="translate(364.479 66.661)" fill="#404040" stroke="#fff" stroke-linecap="round" stroke-linejoin="round" stroke-width="1"/>
    <path id="15" data-name="Tizi Ouzou" d="M327.29,8.632l3.819,5.329.191,3.653L329.468,19.4l-1.925-1.471-3.355.983-.4,1.766,4.854,2.574L325.2,27.569l1.111,1.8-5.949,6.669-4.9,2.269-6.863.726-.748-1.458-2.754,1.48-15.432.445-3.639-.9-2.555-4.466-2.135.109-2.432-3.377-.592-4.624,3.866-.876,2.3,1.619-.45-3.519,3.7.857-2.108-2.359,1.054-3.934,2.845.633.491-1.652,2.574-.21.126-2.132,3.694-3.172-.366-3.382,14.845-.876,5.053,1.163,2.692-1.493Z" transform="translate(481.453 11.957)" fill="#404040" stroke="#fff" stroke-linecap="round" stroke-linejoin="round" stroke-width="1"/>
    <path id="16" data-name="Alger" d="M290.9,12.106l-.74,1.663,1.8-.587.082,2.787L285.822,18l-1.8-1.321,1.065,1.916-1.881,1.49L280.45,22.2l-1.665-.827L276.865,26.3l-3.049.2.295-2.954-4.07,2.921-10.294-4.321-.371-3.95,1.668-4.406,2.454-.478.745-2.577,3.29-.641,5,.24,1.349,3.279,3.172,1.433,5.785-1.7.426-3.535Z" transform="translate(448.692 16.98)" fill="#404040" stroke="#fff" stroke-linecap="round" stroke-linejoin="round" stroke-width="1"/>
    <path id="17" data-name="Djelfa" d="M368.8,147.377l-11.747-9.784.854-5.689-5.009-5.413.816-5.575-1.966-11.6-10.66-2.662-3.852,1.308-.385-4.51-3.825-.879.57-8.111-1.911-2.6,1.5-.186,1.376-4.2-5.02,2.009-3.1-8.542L338.136,71.1l-1.158-5.3,2.361-1.725.2-4.843-12.88-10.385-5.2-5.334-.849-3.432-2.978.134-2.331-4.685-2.82,2.784.287,3.29-2.056,3.743-7.606,1.914-.5-6.006-1.908.393-1.895-6.38-7.057,1.93,1.848,13.66-1.583-.707-4.993,3.715-4.379,7-3.53,1.807L271.74,57.46l-.622,1.529-6.756,2.217-5.837.456-1.8-6.454-10.1.865L243,56.786l.6,3.811,18.5,11.212,2.866,5.02,7.335-6.279,2.869,2.176.9,3.071,4.769,1.141-.019,4.152-1.851.71-3.058,6.142,3.9,3.486-8.812,3.481-3.95,12.724-4.013,1.25.456,6.628,1.548,17.28,3.4,9.8,1.209-.235,9.216,13.005,3.3.887,6.161-2.9,1.9.713-.074-3.953,6.186-6.251,3.975,2.072-.338,1.177,3.418-1.179,6.5,18.315-.4,3.306,4.379,8.738,14.31,4.111,10.879,9.792,3.844,6.358,22.18,8.354,4.067,2.907,10.944,10.685,8.714,14.67,32.409,8.8-6.03-31.238,6.606-14-.317-5.2,1.422-2.4L411.977,186.4l-1.971-3.341-5.361.9-1.065-2.593-8.9-1.712-2.951-4.016L373.791,167.9l-1.229-1.881,1.084-1.433,3.664-.341,3.754-4.024,3.268.005-1.556-1.993-6.423-1.078-1.054-4.073-5.151-.718L367.6,149.25Z" transform="translate(420.369 61.007)" fill="#404040" stroke="#fff" stroke-linecap="round" stroke-linejoin="round" stroke-width="1"/>
    <path id="18" data-name="Jijel" d="M331.8,33.147l3.036-.923,3.732,1.968,4.106-1.218,3.393-4.559,13.254,2.217,5.08-3.366,1.182,1.744,7.485,1.31-.693-3.784,2.263-.532.819-2.14-8.1-3.893-1.905-9.033-4.466-.964.762-3.23-1.25-1.8-15.757,8.176-9.511,2.331-2.34-1.548-4.575.9-6.5,3.939L319,24.3l-5.056,2.552.079,3.593,2.5.532,2.053-.065,1.1,5.061,2.673.21,2.705-2.615,3.41,1.845,3.339-2.266Z" transform="translate(543.088 8.549)" fill="#404040" stroke="#fff" stroke-linecap="round" stroke-linejoin="round" stroke-width="1"/>
    <path id="19" data-name="Sétif" d="M356.652,16.691l1.521,1.957-.341,5.591,3.4,2.6-.311,3.677,3.806,1.163-.268,3.2,5.976,6.462-2.67,1.422.137,5.1,4.676,1.092.781,5.692-1.881,1.646,3.169,3.309-3.273,3.533-2.634,1.556,1.215,3.175-7.66-6.6-3.314.865-3.887,4.256.333,2.113,3.309,1.1-2.162,3.557-1.859-.652-1.37,1.477-6.262-2.591-.661,1.87-2.173-.213-3.773,2.981.641,2.733-2.132,4.8-3.077-.909-9.536-1.28-1.5-2.2,1.141-1.466-1.329-1.414-3.022.655L317.639,74.1l.461-1.712-.052-4.373,5.7-.784-1.319-7.99,4.556-7.8-2.648-2.653.347-5.673-2.632-.748-4.038-6.948-3.284-.991-2.623,1.783-7.786.814L302.2,34.334l.816-5.116-3.434-1.834,6.866-3.956.131-3.683,9.885,1.31,1.22-3.762,2.533.24.1-1.226,5.9,4L324.751,22.2l-.066,7.346,1.556-.543-.068,2.552,4.518-.658,2.042-1.024-1.28-2.509,3.587-4.024-.685-1.864,6.519-2.927.5-4.032,2.05-.065,1.1,5.061,2.673.21,2.708-2.615,3.407,1.845Z" transform="translate(518.24 25.006)" fill="#404040" stroke="#fff" stroke-linecap="round" stroke-linejoin="round" stroke-width="1"/>
    <path id="20" data-name="Saïda" d="M262.424,105.709l-7.788-2-12.514,8.556-4.725-6.268-7.914,5.484-5.932-.693-5.716-5.806-6.366-2.083-4.095-4.087-6.006,3.4L201,96.335l-2.675-2.992.7-4.125,6.8,3.41,1.766,5.14,3.058-4.548-3.765-7.753-5.768-3.751-.8-3.014-4.832-.445,1.1-3.251-3.628-2.46,3.178-2.187-1.081-5.7,4.947-.535-1.324-4.813.961-2.582,3.6-1.1,2.684.019,1.813-3.385.945,5.392,7.051-.513,3.549,2.369,2.951-.267.56,2.476,2.76,1.807,6.806-4.5,2.113,2.43,2.724.328,4.207-4.144,9-1.059.77,2.705,3.83,1.723,4.354,6.645-8.632,6.355,1.518,2.52-1.051,4.663,4.725,8.367,2.894-1.25,1.231,3.221-2.061,1.45.863,1.45,8.119,3.341Z" transform="translate(333.785 90.414)" fill="#404040" stroke="#fff" stroke-linecap="round" stroke-linejoin="round" stroke-width="1"/>
    <path id="21" data-name="Skikda" d="M394.309,29.833l-1.466.955L391.7,29.571l-1.5,2.869-9.784,3.451-1.78,2.383,1.146,3.393L372.6,43.575l-.169,4.209-3.423-.355-1.086-1.911-3.066.568.562-5.5,2.648-2.779-4.914.986-6.208-1.158-1.007-3.614-2.913,3.789-5.976-.4-2.64.475-.693-3.786,2.263-.53.819-2.143-8.1-3.893-1.905-9.031-4.466-.964.759-3.232-1.25-1.8-1.327-2.856,1.3-3.093L335.8,3.386l7.644-1.753,4.417,2.26,2.1,5.569,7.873,1.818,1.75-1.428,1.067,1.308,4.491-1.073,2.127,4.365,4.048.65,7.2-2.986,4.529.109,5.574-5.261-.759-2.853L382.846.569l6.74.164,2.359,1.922-.737,1.772,2.552,4.253-.278,1.444-1.687-.3,3.672,3.421,1.766,9.35-.207,2.446-3.262,1.338Z" transform="translate(571.75 0.984)" fill="#404040" stroke="#fff" stroke-linecap="round" stroke-linejoin="round" stroke-width="1"/>
    <path id="22" data-name="Sidi Bel Abbès" d="M212.711,45.513l-1.753,2.711.658,2.632-4.1,2.042-.5-1.834-7.747,1.357-.186,1.987-2.643,1.245-2.217-1.5-2.132,3.808-1.837-.489.781,5.312-3.767,1.258L186.594,68l-2.236,1.3,5.3,2.9-3.584,5.807L187.457,83l3.251.123-2.192,3.1,3.21-.658-1.179,8.722,6.484-.743.748,2.744-1.354-.1.628,1.87-3.508,7.515-4.392,2.6,2.61.541.988,2.165L176.119,126.25l2.948,4.452,5.823-4.281L186.5,129.2l.934-1.136,8.1,2.44,11.064-6.852,5.034,2.842,8.55,26.668.857-3.082,2.334.112,5.708-7.878,4.452-1.941,3.754.543,4.1-8.373,2.572-1.886-3.366-15.039-4.095-4.087-6.006,3.4-.371-5.877-2.678-2.992.7-4.125,6.8,3.41,1.766,5.14,3.057-4.548-3.764-7.753-5.768-3.751-.8-3.014-4.832-.445,1.1-3.251-3.628-2.46,3.178-2.187-1.081-5.7,4.947-.538-1.327-4.81.964-2.582,3.6-1.1-2.192-6.014,1.024-2.634,4.032-1.944L232.6,56.8l-3.333,2.782-.592-1.5,3.579-2.34,1.037-2.694-7.444-2.334-.964-1.725-2.05,2.408-4.267-.328.631-6.156-4.335,1.643Z" transform="translate(304.669 77.689)" fill="#404040" stroke="#fff" stroke-linecap="round" stroke-linejoin="round" stroke-width="1"/>
    <path id="23" data-name="Annaba" d="M352.15,1.232l2.359,1.922-.734,1.774,2.55,4.25-.279,1.441-1.684-.3,3.672,3.421L359.8,23.09l-.21,2.449-3.262,1.338.549,3.456L360.018,30l1.2,2.391.546-2.026,3.011-1.384.478,3.238,7.4,1.373,2.378-3.65h0l1.559-3.95-1.166-2.039,2.645-3.112,2.566.39.082-3.625,3.112-.025-1-1.87-3.254-2.37,1.455-6.159L376.2,8.837l-2.836-1.944L371.41,8.27l-6.443-5.424-5.85.513-1.3-3.079Z" transform="translate(609.184 0.483)" fill="#404040" stroke="#fff" stroke-linecap="round" stroke-linejoin="round" stroke-width="1"/>
    <path id="24" data-name="Guelma" d="M385.9,11.756l2.555-.844,1.873,1.368,3.246,7.125,3.189-1.043.551,1.48-.128-2.1,3.543,1.594,2.514,5.05-5,4.218-2.8-1.125-.53,3.6,2.946,3.773-1.021,1.193-6.055.47-5.894,5.681-3.262-.743L374.753,44l-7.791-1.474L365.613,46.2l2.047,2.506-3.429.208-1.865,4.846-7.6,3.745-2.727-.453.535-2.613-3.453-1.5.549-3.429-.213-1.556,2.34-1.294.287-4.605-1.531-3.939-3.339-.6,1.635-1.955-2.874-1.521,1.458-1.5L345.868,30.1l.167-4.21,7.177-1.905-1.149-3.4,1.785-2.383,9.784-3.451,1.5-2.869,1.141,1.217,1.469-.955,3.142-.333,1.2,2.391.546-2.026,3.011-1.387.478,3.24,7.406,1.373,2.375-3.65Z" transform="translate(598.317 18.67)" fill="#404040" stroke="#fff" stroke-linecap="round" stroke-linejoin="round" stroke-width="1"/>
    <path id="25" data-name="Constantine" d="M372.6,45.99l-.213-1.556,2.337-1.294.289-4.605L373.477,34.6l-3.336-.6,1.633-1.955L368.9,30.52l1.458-1.5-1.567-2.432-3.421-.355-1.089-1.911-3.066.568.562-5.5,2.648-2.779-4.914.986-6.2-1.158-1.01-3.614-2.913,3.789-5.973-.4-.057,4.365-9,2.088.778,5.517-2.514,5.124,3.6-1.1,3.071,2.4-.721,4.059,2.151,1.354,2.782-.8,2.558,2.192-.295,3.7-1.04,1.193,1.624,3.167,2.757,1.01-1.267-2.2,3.063,1.646L351.927,47l6.12-.437.718-3.939,3.947,3.183Z" transform="translate(575.391 22.185)" fill="#404040" stroke="#fff" stroke-linecap="round" stroke-linejoin="round" stroke-width="1"/>
    <path id="26" data-name="Médéa" d="M330.156,59.223l.742,2.17-3.117,1.873,1.5,1-5.514,1.87,2.351,3.494.1,8.1-7.393-11.34-2.443.382,1.108,2.1-1.335,1.351-2.978.134-2.329-4.685-2.82,2.784.284,3.29-2.056,3.74-7.606,1.916-.505-6.006-1.908.39-1.892-6.377-7.057,1.93,1.845,13.66-1.581-.707-5,3.715-4.379,7-3.53,1.807-7.368-5.211-.625,1.529L259.9,91.354l-5.839.456-1.8-6.453,1.938-5.37-7.671-2.015-.947-3.715,1.373-1.69,6.079.625L255.5,62.524l2.866-3.011-.92-2.391,5.421.2.863-7.578,2.348.639,5.029-3.03.175-5.031-3.669-.833-.232-3.737-1.936-.543L267.15,32l3.674.117,2.064-1.676,4.119-2.967,7.9.56,4.28-3.213,1.832,4.111,4.04.022,2.37-2.64-.519-3.707,1.294,2.613,2-1.63L302.1,25.49l3.161-3.15.227-3.77,4.45.734,1.31-1.466,7.431,7.18,4.259-4.04L326.64,22.9l-1.2,1.873,2.722,3.8L325.242,30.2l-1.207,3.456,2.918,2.67-.494,2.209-3.89,1.13-.625,2.329,1.791,2.845-1.116,1.324-2.452,2.552-2.768-.041,1.308,2.132,7.611,1.188Z" transform="translate(424.831 30.858)" fill="#404040" stroke="#fff" stroke-linecap="round" stroke-linejoin="round" stroke-width="1"/>
    <path id="27" data-name="Mostaganem" d="M198.223,60.405l8.091-5.048L212.7,42.606l5.037-5.3,25.08-14.728,4.75-.161-2.73,8.962-5.4,6.746,3.519,3.685-1.731,1.908.98,2.375-5.8.254L234.886,48l-3.347-1.564-2.307,2.779.852,2.094,1.84-.1-1.611,2.708.62,2.482L227.3,60.326l-2.4-1.018-2.367,1.469-4.758,5.662-2.468-.371L213.655,68.7l-.079-2.083-2.924.494-2.809-3.9L201.7,64.844Z" transform="translate(342.906 38.782)" fill="#404040" stroke="#fff" stroke-linecap="round" stroke-linejoin="round" stroke-width="1"/>
    <path id="28" data-name="M'Sila" d="M366.79,46.479l-.461,1.712,4.021,2.845,3.022-.655,1.329,1.414-1.141,1.463,1.5,2.2,9.535,1.28-7.264,8.086-4.96,2.473L370.4,64.382l-2.9-.03-2.258,2.511-.2-2.146-2.618,4.111-5.31-4.635,2.244,12.012-1.035,6.95-2.5,4.223-1.43-.508-3.238,3.2.527,1.654,8,.164,5.8,3.811,1.22,9.536,1.493.83-1.466.183-1.867,4.327-14.842,4.452-2.572,4.1-2.733.47,3.541,2.962-2.787,1.493-1.8-1.215-5,3.112-13.123.123-2.391,4.979-5.981,5.007,1.425.824,1.141,8.414,3.317,3.47-.833,1.979,4.947,2.542-2.113,2.749-5.432,1.433-11.747-9.784.852-5.692-5.009-5.413.816-5.572-1.96-11.6-10.666-2.662-3.849,1.308-.385-4.51-3.827-.879.573-8.113-1.911-2.6,1.5-.186,1.376-4.2-5.02,2.012-3.1-8.542,11.684-9.847-1.157-5.3,2.364-1.725.2-4.84-12.88-10.387-5.2-5.337-.852-3.429,1.338-1.351-1.111-2.107,2.443-.379,7.393,11.34-.1-8.094-2.35-3.5,5.515-1.867-1.5-1,3.118-1.873-.745-2.17,1.452-2.206,4.2.418,1.785,2.522,2.927.606.955,2.744,2.187.131,3.467-3.317,6.937,2.432-1.209-3.784,2.886-8.908,1.559,3.014,6.036-2.1,7.518,2.694,9.257-3.988,2.361,7.576-4.414,1.7-1.878,5.722,7.7.8-.983-2.705,3.625-1.744-1.054,2.978,1.81,2.091,5.654-4.264,7.425-1.455,3.628,4.556,3.186-.134.5,3.325Z" transform="translate(469.55 50.913)" fill="#404040" stroke="#fff" stroke-linecap="round" stroke-linejoin="round" stroke-width="1"/>
    <path id="29" data-name="Mascara" d="M232.825,42.283l1.578.53,3.322,9.858,4.684-1.343.344,1.428,2.342-1.668,3.5,4.919,5.16-.109,2.506,2.5,4.7-.235.805,1.807,5.588.868,4.073,4.245-1.884.764L267.159,71.6l-3.036.961-4.152-2.154-2.959.44-3.2,3.849.669,2.591-4.237,3-2.924,4.832-4.207,4.144-2.724-.328-2.113-2.43-6.808,4.5-2.757-1.81-.56-2.473-2.951.265-3.552-2.37-7.051.516-.942-5.394-1.813,3.385-2.684-.016L206.96,77.1l1.026-2.634,4.029-1.941-2.607-.969-3.331,2.782-.6-1.5,3.582-2.34L210.1,67.8l-7.444-2.334-.961-1.723-2.053,2.408-4.267-.328.633-6.156-4.335,1.641-2.148-1.04.871-2.045,2.809-.232-1.01-2.593,4.319-1.04.718-4.75,7.166-5.744-1.821-.016L205,39.66l3.909,2.973,4.316-6.251,3.513,4.308,6.148-1.635,2.812,3.9,2.921-.491.082,2.083,1.654-2.632Z" transform="translate(327.857 62.936)" fill="#404040" stroke="#fff" stroke-linecap="round" stroke-linejoin="round" stroke-width="1"/>
    <path id="30" data-name="Ouargla" d="M396.082,120.131,393.6,125.2l-10.7-9.555-6.609,14,6.033,31.238-13.756,25.4L350.11,206.248l-2.094,46.436-8.654,22.268-28.65,100.2-4.316,2.984L287.939,416.6l-22.453,9.91,47.847,38.707-.407,1.127,117.724-90.8,43.343-24.332,7.627,2.427L654.953,308.7,623.859,203.756,515.4,215.385,500.383,198l-21.228-31.612-22.1-62.7L453.724,82.77l-.871,2.2-1.42-2.839-2.077.306-7.428,5.828L440.421,85.4l-1.815,1.657-.126,3.822,3.1,7.1.112,6.978-2.607,2.924,3.2,4,1.021,7.371-47.225.874Z" transform="translate(459.264 142.078)" fill="#404040" stroke="#fff" stroke-linecap="round" stroke-linejoin="round" stroke-width="1"/>
    <path id="31" data-name="Oran" d="M208.983,66l.871-2.045,2.809-.232-1.01-2.593,4.321-1.04.718-4.753,7.166-5.744-1.821-.016,2.427-4.182,3.909,2.973,4.36-6.385-9.369-2.525-1.736-2,.767-2.08-2.446-2.307-2.678.068-1.843,1.832-4.095.3-.9,6.009-6.8,5.233-3.623.03L198.9,44.464,191.94,42.45,189.887,46.1l-2.326.693-2.168-1.611-7.12,6.181,3.661,3.9-.606,1.96,2.752.019-1.046,2.779-2.438.688.475,4.343.033-1.7,2.44-.126-.551-1.627,2.241,1.793,4.286.057,13.83-4.433L205.47,67l-2.107,1.54-.074,3.006.5,1.834,4.1-2.039-.658-2.632Z" transform="translate(308.397 57.202)" fill="#404040" stroke="#fff" stroke-linecap="round" stroke-linejoin="round" stroke-width="1"/>
    <path id="32" data-name="El Bayadh" d="M267.361,73.626l-7.788-2-12.514,8.556-4.725-6.268-7.914,5.484-5.932-.693-5.716-5.806L216.4,70.812l3.366,15.042L217.2,87.737l-4.1,8.373.478,6.746,4.9-2.2,2.88,2.042-.557,7.215,2.05.764,1.987,4.892,2.075.311-5.79,3.074,2.258,8.13-8,35.781,2.3,6.683-2.416,2.705,1.835,1.185-1.616,4.335-4.267,2.334-.759,5.028,2.258,1.286-.734,3.087,2.675,2.989-1.086,4.193,1.174,6.522-8.157,15.719-2.6,11.971-5.681-1.286-3.011,2.233-2.864,6.058-.377,11.4,1.854,6.227-1.87.18.486,2.64-1.641,2.307,2.607,3.224-3.391,3.3,3.4,5.5-2.768,3.287.1,5.091,2.326,4.977,7.966,6.421-2.233,8.135,38.3,32.494,43.176-30.512,57.563-35.986,12.691-14.059-1.968-23.51,7.027-4.567-5.239-20.982L348.9,186.6l-8.5-17.922.4-4.174-1.75-2.416,10.911-.366.557-10.649-5.659,1.234-9.609-3.1.562-4.567-8.523-.783.778-7.8,2.241-3.917-3.115-2.754-.338-2.7-3.977-1.125.674-7.248-1.545-4.234-4.993-4.324-9.541,2.23-4.4-4.9-6.022-2.64.45-2.7-2.361-3.988-3.052-4.305-.59-5.031-15.126.8L278.2,75.884Z" transform="translate(328.847 122.497)" fill="#404040" stroke="#fff" stroke-linecap="round" stroke-linejoin="round" stroke-width="1"/>
    <path id="33" data-name="Illizi" d="M636.7,721.159l-1.96-56.135-20.42-11.55-6.033.134-4.523-2.76L565.8,653.083l-35.183,26.245-46.894,11.359-17.04-11.99,5.383-6.1L456.84,638.858,454,608.993l.65-10.33-15.268-21.929-12.225-.382-7.739-5.949-10.06-17.026L404.915,542,391.1,525.231,374.91,481.171l-4.188-3.09-.371-2.741-6.137-1.635-3.224-4.245,2.891-8.362,7.7-6.41-1.138-5.225-34.64-30.6-.1-23.8L325.51,347.07l4.84-22.806-3.535-92.3,43.343-24.329,7.627,2.424,173.332-44.937,6.585,22.552-8.46,3.527-1.269,2.956,1.884,7.125,8.135,9.358,16.832,32.172,7.447,27.231,3.137,18.539-2.036,33.174,9.964,28.6-1.5,13.161-3.158,6.716-2.957,1.01,3.822.606-.672,4.092-2.864,3.093-1.324,7.715.363,6.751,6.115,20.736,4.625,6.088.262,15-2.528,9.033-21.337,10.821-2.948,9.391-3.314,4.237,43.709,55.5,2.126,27.457L624.74,572.8l9.486,7.272,12.031-.652,4.2-3.085,5.812-.393,4.177,4.07,3.524-4.42,4.665.674,3.516,1.417,6.931,6.907,5.492,1.8,19.331,11.93,11.223-5.408,28.806,48.767Z" transform="translate(563.099 285.654)" fill="#404040" stroke="#fff" stroke-linecap="round" stroke-linejoin="round" stroke-width="1"/>
    <path id="34" data-name="Bordj Bou Arreridj" d="M341.7,64.194l-.052-4.373,5.7-.786-1.319-7.988,4.556-7.8-2.648-2.654.347-5.673-2.632-.748-4.038-6.948-3.284-.994-2.623,1.785-7.786.811L325.8,26.144l.816-5.119-3.434-1.834-.917,3.068-5.5,2.509-.1,6.8-11.408,3-2.121-4.644L301,32.426l-3.715-.251-2.17,3.39-4.663,2.353-.508,6.508-4.01,3.1,1.559,3.014,6.036-2.1,7.518,2.694,9.254-3.988,2.364,7.576-4.414,1.7-1.878,5.722,7.7.8-.985-2.705,3.628-1.744-1.054,2.978,1.81,2.091,5.654-4.264,7.425-1.455,3.628,4.559,3.186-.137.5,3.325Z" transform="translate(494.637 33.199)" fill="#404040" stroke="#fff" stroke-linecap="round" stroke-linejoin="round" stroke-width="1"/>
    <path id="35" data-name="Boumerdès" d="M272.955,33.391l5.7.322,3.729-1.949,1.313-2.689,12.869,1.938-.592-4.624,3.866-.876,2.3,1.619-.451-3.519,3.7.854-2.107-2.356,1.054-3.934,2.844.631.491-1.652,2.574-.207.126-2.132,3.7-3.175-.368-3.382-8.37-1.43-8.85,2.825L294.016,12.6,283.5,18.022l-7.7-.751-.74,1.665,1.8-.59.082,2.787-6.219,2.034-1.8-1.319,1.067,1.916-1.881,1.49,2.064,3.576,2.419-.955-1.463,1.31,1.286,2.337-1.051,1.13Z" transform="translate(463.792 11.814)" fill="#404040" stroke="#fff" stroke-linecap="round" stroke-linejoin="round" stroke-width="1"/>
    <path id="36" data-name="Tarf" d="M368.329,11.672l1,1.87-3.107.024-.087,3.625-2.563-.39-2.648,3.112,1.168,2.039-1.559,3.95,2.552-.844,1.875,1.368,3.243,7.128,3.191-1.046.549,1.482-.128-2.107,3.543,1.6,2.514,5.05,3.775-.052.742,4.8,2.247-3.431,4.974-2.247-.89-2.056L390,34.238l6.353-2.173,6.3-5.815,2.5-.325,1.905-5.6L405.9,17.2l-2.359-1.1,8.108-1.455,5.413-3.609.486-1.422-3.238-.92.543-6.077L402.7,6.548l-3.9-1.788-4.974.745-2.683-2.351L378.214,10.46Z" transform="translate(623.685 4.523)" fill="#404040" stroke="#fff" stroke-linecap="round" stroke-linejoin="round" stroke-width="1"/>
    <path id="37" data-name="Tindouf" d="M172.318,192.349l-6.15-1.772-13.813,1.362-3.431-1.288-5.059,2.752-10.188-.3-5.277,3.347-22.361-5.815-15.394,8.869L77.11,199.1l-2.73,4.824-8.471,2.348-11.567,8.2-13.68,6.563L22.19,234.81,8.978,239.524l-8.717,98.2L180.32,475.093,215.7,463.523l19.666-18.976,38.707.65,8.3-18.348,19.6-26.537,6.328-5.405,10.535-4.33,20.979,1.531,4.862-2.888,9.069-29.912-36.157-4.592-8.192-6.6-15.926-19.377-.229-20.865-18.5-34.607-15.776-57.827-15.877-8.657-22.958-.961L206.543,194.4l-4.338,5.779-7.242-4.826L191.2,196.61l1.867-4.627-4.537-2.266Z" transform="translate(0.451 328.192)" fill="#404040" stroke="#fff" stroke-linecap="round" stroke-linejoin="round" stroke-width="1"/>
    <path id="38" data-name="Tissemsilt" d="M234.753,43.131l2.107,1.835L233.8,48.61l-1.927-.388-.906-2.441-2.711,1.482.562,4.507L227.038,54.7l3.672,4.559,1.608-6.273,3.464,2.542,1.471-.83,3.694,2.086.166,3.863,5.332-.475,2.853,4.693,2.219.423.47-2.858,2.615,2.654,10.365-1.179,6.647-3.65-1.526,1.832,4.231.183-.079,2.6,10.1-.865,1.938-5.37-7.671-2.017-.947-3.713,1.379-1.69,6.074.622,2.465-10.663-4.267-.36-2.293-3.027-3.352-.15-1.2-2.555-7.332,1.933.016-2.738-7.193,7.993-2.113.052-1.092-3.139-5.823-.682-5.214-3.2-2.828-5.121-3.325,3.178-.1,2.359-6.178,1.693,1.048.95-1.414.909Z" transform="translate(392.753 52.21)" fill="#404040" stroke="#fff" stroke-linecap="round" stroke-linejoin="round" stroke-width="1"/>
    <path id="39" data-name="El Oued" d="M463.909,81.173,441.36,80.038l-11.635-4.057L417.654,77.07l-.249,12.5-4.212-.964-14.176-8.572-.134-5.888-4.712,5.995-4.515,1.586-3.961-3.8-15.653-5.588L355.549,75.9l-32.562-3.47-6.243-4.15L313.724,70l1.965,1.712-5.16,3.625,3.276,3.7-1.916,5.056L321.9,92.975l-5.37,12.817-2.348,10.922,2.959,5.708.955,12.634,1.875,4.327-1.813,4.709,47.224-.874-1.021-7.371-3.2-4,2.607-2.921-.112-6.98-3.1-7.1.126-3.822,1.818-1.657,1.5,2.861,7.428-5.826,2.08-.308,1.417,2.839.874-2.2,3.325,20.919,22.1,62.7,21.23,31.612,15.02,17.379,108.456-11.627L502.272,201.18l-3.254-22.292-13.011-15.159-.123-3.494-12.749-5.269-4.335-.033-5.441-16.639-9.735-15.227-.753-7.48L449.02,112.7l1.269-2.741-1.728-4.873,1.567-7.753-2-3.227,4.627-3.27,2.468-5.987L459.8,86.69l4.368-3.44Z" transform="translate(537.185 118.117)" fill="#404040" stroke="#fff" stroke-linecap="round" stroke-linejoin="round" stroke-width="1"/>
    <path id="40" data-name="Khenchela" d="M382.462,129.65l2.11-13.876,5.757-10.75.068-4.638-1.736-2.61,2.047-5.468-2.375-6.514-3.47-.268-1.8,2.645-1.207,3.691,1.365-.4-.24,4.319L380.5,90.02l3.792-9.83,3.565-2.23,3.9-6.65-2.869-4.25,2.151-3.243-2.083-1.564-.319-6.675,8.553-3.085-1.8-2.869-1.889-.164-.906-3.254-1.073-.857-1.635,1.641.489-1.581-3.587-2.528L385.664,46.7l-2.864.841.175-5.908-4.829-2.394-.328,1.5L372.861,40l-2.612,5.484-4.5-1.319,1.117-2.774-1.679-1.447-11,1.662-2.116-4.354-.584,3.653,2.023,4.07-1.673,4.133-6.6,1.632-4.07,3.784,1.725,3.639-.481,3.926,2.869.6L340.79,66.5l.631,7.193-3.571,3.9,1.2,3.688-1.1,2.3,2.189.4,3.675,6.161-1.362,1.581,1.668,1.321-2.211,2.17,1.728,5.856,2.967-1.641,2.015-4.687,3.107-.169-1.095,1.288,2.858,2.883-1.133,2.722,2.244-.538-1.985,6.519.448,9.536-2.856,5.566,1.409,5.258.136,5.888,14.174,8.575,4.215.961.246-12.5Z" transform="translate(584.447 64.449)" fill="#404040" stroke="#fff" stroke-linecap="round" stroke-linejoin="round" stroke-width="1"/>
    <path id="41" data-name="Souk Ahras" d="M411.619,50.84l-5.94-2.951-6.822,3.033-3.426-.423-5.738,6.421L385.265,57l-5.127-3.827L379.051,56.9l-2.23,1.324.966,4.2-7.685.584.085-4.035-7.3-2.566-2.8-3.633-1.775-5.79L356.3,46.86l-1.155-6.178L353.1,38.176l1.351-3.677,7.788,1.474,6.877-2.55,3.259.743,5.9-5.681,6.055-.472,1.021-1.193L382.4,23.047l.53-3.6,2.8,1.125,5-4.215,3.773-.052.743,4.8,2.247-3.431,4.974-2.249,8.722,2.309,2.037-1.45,3.213,1.736-1.622,4.69,1.04,3.418-2.869,2.913,1.078,2.214-2.372,4.291,2.274,4.988-2.37,4.231.019,6.069Z" transform="translate(610.829 26.693)" fill="#404040" stroke="#fff" stroke-linecap="round" stroke-linejoin="round" stroke-width="1"/>
    <path id="42" data-name="Tipaza" d="M238.155,23.619l-3,6.735,3.879,7.12,4.01-2.995.786-3.036,10.628,2.2L262.535,31l7.45,2.225,12.765.027,2.834-4,4.28.824,1.22-1.747-1.209-2.189,2.894-.382,4.032-4.5,5.763-1.632-.925-2.793-.369-3.953-14.163,7.745-7.442-.1-1.316-2.8-3.21-.767-18.4,5.55-6.306-.748Z" transform="translate(406.798 22.295)" fill="#404040" stroke="#fff" stroke-linecap="round" stroke-linejoin="round" stroke-width="1"/>
    <path id="43" data-name="Mila" d="M346.321,65.534,336.537,64.4,335.2,65.441l3.273-3.532L335.306,58.6l1.881-1.646-.781-5.692-4.676-1.089-.137-5.1,2.67-1.422-5.973-6.462.265-3.2-3.805-1.163.311-3.677-3.4-2.6.341-5.591L320.485,19l3.036-.923,3.735,1.971,4.106-1.22,3.391-4.559,13.254,2.217,5.083-3.366,1.179,1.744,7.485,1.31L364.4,15.7l-.055,4.365-9,2.088.778,5.517L353.6,32.8l3.6-1.1,3.071,2.4-.718,4.062,2.151,1.354,2.779-.805,2.561,2.195-.3,3.7-6.459,2.356-.442,7.619-3.328,4.185-2.135-.319.584,2.1-1.952-1.39-4.5.617Z" transform="translate(554.407 22.696)" fill="#404040" stroke="#fff" stroke-linecap="round" stroke-linejoin="round" stroke-width="1"/>
    <path id="44" data-name="Aïn Defla" d="M295,27.933l-8.171-5.749-12.768-.027-7.447-2.225-8.075,2.645-10.63-2.2-.786,3.036-4.01,2.995-3.876-7.12-6.085,4.48-.355,3.2,4.084,4.431-3.265,3.191,4.993,1.466-3.631,2.416.011,2.779,1.854,1.922,2.184-.489-.7,3,1.862,4.387,3.462,2.481-.693,4.8,5.823.682,1.095,3.139,2.113-.052,7.191-7.993-.016,2.738,7.335-1.933,1.2,2.555,3.355.153,2.29,3.027,4.267.358,2.866-3.014-.92-2.391,5.419.2.865-7.578,2.348.641,5.028-3.033.172-5.029-3.669-.835-.232-3.737-1.933-.543,1.706-5.214,3.674.117L295,27.933Z" transform="translate(402.719 33.361)" fill="#404040" stroke="#fff" stroke-linecap="round" stroke-linejoin="round" stroke-width="1"/>
    <path id="45" data-name="Naâma" d="M199.438,76.351l2.948,4.453,5.823-4.28,1.605,2.782.936-1.138,8.094,2.443,11.067-6.855,5.031,2.842,8.553,26.668.857-3.082,2.331.112,5.708-7.876,4.455-1.944,3.751.546.478,6.743,4.9-2.2,2.88,2.045-.56,7.212,2.05.764,1.99,4.892,2.072.311-5.79,3.074,2.258,8.13-8,35.781,2.3,6.683-2.419,2.708,1.834,1.182-1.616,4.338-4.267,2.331-.756,5.029,2.255,1.286-.732,3.087,2.675,2.992-1.089,4.19,1.174,6.522-8.154,15.719-4.447,6.554-6.6-1.411-4.919,3.631-18.539-5.195-15.926,8.468-.811-4.267-3.775-.115,1.48-7.816-3.9-.336-.448-6.53,7.832-7.081-15.743-12.694-6.494-3.219-9.145-15.492,3.445-1.144,1.029-6.56-6.019-5.716-5.293-9.317.532-7.016,4.69-10.406-.259-5.255-3.238-5.5-4.9-1.384.568-2.438,3.481-2.533L165.2,104.19l3.232-15.585,9.855-7.152,13.633.06,3.347-3.846Z" transform="translate(281.349 127.588)" fill="#404040" stroke="#fff" stroke-linecap="round" stroke-linejoin="round" stroke-width="1"/>
    <path id="46" data-name="Aïn Témouchent" d="M200.341,78.192l-1.875.191L197.75,75.9l-9.522-4.772-.906.9-1.016-2.107-2.951,1.242L176.973,69l-2.506,3.647-2.956.723-2.869-1.824.551-2.6-2.312-1.7,7.286-4.821,4.442.385,5.785-3.393L189.918,44.1l2.44.1,5.626-4.425,3.661,3.9-.609,1.96,2.755.019-1.046,2.782-2.438.688.472,4.341.033-1.7,2.44-.123-.549-1.63,2.241,1.794,4.283.057,13.83-4.433,2.121,7.977-2.107,1.54L223,59.951l-7.747,1.359-.183,1.985-2.643,1.247-2.219-1.5-2.132,3.808-1.835-.491.781,5.312-3.77,1.258-.674,3.961Z" transform="translate(288.686 68.801)" fill="#404040" stroke="#fff" stroke-linecap="round" stroke-linejoin="round" stroke-width="1"/>
    <path id="47" data-name="Ghardaïa" d="M307.979,385.142l22.453-9.912,18.457-38.467,4.313-2.984,28.653-100.2,8.651-22.268,2.1-46.436,18.454-19.958,13.759-25.4-32.412-8.8-35.7-2.46-2.1,1.152-7.324-3.027-2.468,1.057-.83-1.4-1.138,2.061-1.193-.874-2.588,2.007-21.432.994,9.991,6.085.9,7.928-23.338-5.566-14.662,4.384-29.548,2.583,1.542,16.876,5.236,20.982-7.027,4.564,1.968,23.513L250,205.638l-1.864,78.124-7.215,36.264,11.668,64.819-3.055,13.33,28.02-10.385Z" transform="translate(416.771 183.448)" fill="#404040" stroke="#fff" stroke-linecap="round" stroke-linejoin="round" stroke-width="1"/>
    <path id="48" data-name="Relizane" d="M239.913,80.147l-5.588-.868-.805-1.807-4.7.232-2.506-2.5-5.162.112-3.5-4.919-2.342,1.668-.344-1.428-4.684,1.343-3.322-9.858-1.578-.53,4.761-5.662,2.367-1.471,2.394,1.018,3.636-3.92-.62-2.484,1.611-2.705-1.84.1-.854-2.094,2.31-2.779,3.347,1.562,1.51-1.652,5.8-.254-.983-2.378,1.731-1.906-3.516-3.685,5.4-6.746,5.61.876,5.932-2.187,1.275,5.17,1.466.057-2.258,4.605,1.389-.426,1.417,5.452,4.846-1.81-.947.663,1.619.115,1.477,3.219,4.267,2.689,7.747-2.219,5.929,8.973,2.107,1.834-3.063,3.644-1.927-.388-.906-2.441-2.714,1.482.565,4.507L264.5,63.282l-3.956,1.564-1.551,2.689-5.615-.565-.45,2.5-2.214-.3-.306,2.367-3.317.265-4.715,7.857Z" transform="translate(355.296 43.631)" fill="#404040" stroke="#fff" stroke-linecap="round" stroke-linejoin="round" stroke-width="1"/>
  </g>
</svg>
