<svg id="logo-instagram-outline" xmlns="http://www.w3.org/2000/svg" width="24.221" height="24.222" viewBox="0 0 24.221 24.222">
  <path id="Tracé_9" data-name="Tracé 9" d="M18.719,3.581a5.061,5.061,0,0,1,5.047,5.047V18.719a5.061,5.061,0,0,1-5.047,5.047H8.627A5.061,5.061,0,0,1,3.58,18.719V8.627A5.061,5.061,0,0,1,8.627,3.581H18.719m0-2.019H8.627A7.087,7.087,0,0,0,1.563,8.627V18.719a7.086,7.086,0,0,0,7.064,7.065H18.719a7.087,7.087,0,0,0,7.065-7.065V8.627a7.086,7.086,0,0,0-7.065-7.064Z" transform="translate(-1.563 -1.562)" fill="#fff"/>
  <path id="Tracé_10" data-name="Tracé 10" d="M18.381,7.858a1.322,1.322,0,1,1,.937-.387A1.324,1.324,0,0,1,18.381,7.858Z" transform="translate(0.405 -1.099)" fill="#fff"/>
  <path id="Tracé_11" data-name="Tracé 11" d="M13.707,9.256a4.451,4.451,0,1,1-4.451,4.451,4.451,4.451,0,0,1,4.451-4.451m0-2.225a6.676,6.676,0,1,0,6.676,6.676,6.676,6.676,0,0,0-6.676-6.676Z" transform="translate(-1.596 -1.566)" fill="#fff"/>
</svg>
