<svg xmlns="http://www.w3.org/2000/svg" xmlns:xlink="http://www.w3.org/1999/xlink" width="21" height="21" viewBox="0 0 21 21">
  <defs>
    <clipPath id="clip-path">
      <rect id="Rectangle_133" data-name="Rectangle 133" width="21" height="21" fill="#b3b3b3" stroke="#707070" stroke-width="1"/>
    </clipPath>
  </defs>
  <g id="Groupe_919" data-name="Groupe 919" transform="translate(-1018 -829)">
    <g id="Groupe_918" data-name="Groupe 918">
      <g id="Groupe_de_masques_72" data-name="Groupe de masques 72" transform="translate(1018 829)" clip-path="url(#clip-path)">
        <g id="__TEMP__SVG__" transform="translate(0 0)">
          <path id="Tracé_183" data-name="Tracé 183" d="M1.349,9.937h3.3a17.754,17.754,0,0,1,.579-3.986,12.089,12.089,0,0,1-2.073-.884,9.227,9.227,0,0,0-1.8,4.87Zm2.692-5.9a11.041,11.041,0,0,0,1.588.65,11.72,11.72,0,0,1,.637-1.428,8.878,8.878,0,0,1,.791-1.236A9.288,9.288,0,0,0,4.043,4.041ZM10.6,0A10.6,10.6,0,1,0,21.2,10.6,10.6,10.6,0,0,0,10.6,0ZM9.937,1.427a4.661,4.661,0,0,0-2.5,2.458A10.119,10.119,0,0,0,6.914,5.04a16.867,16.867,0,0,0,3.024.38Zm0,5.319A17.914,17.914,0,0,1,6.5,6.306a16.356,16.356,0,0,0-.53,3.632H9.937Zm1.325,3.192V6.746a17.914,17.914,0,0,0,3.433-.44,16.3,16.3,0,0,1,.53,3.632ZM9.937,11.262H5.975A16.237,16.237,0,0,0,6.5,14.894a18.015,18.015,0,0,1,3.433-.439Zm1.325,3.192V11.262h3.962a16.355,16.355,0,0,1-.529,3.632,18.015,18.015,0,0,0-3.433-.439ZM9.937,15.779a16.807,16.807,0,0,0-3.024.38,10.327,10.327,0,0,0,.524,1.155,4.671,4.671,0,0,0,2.5,2.458V15.78Zm-2.879,3.4a8.871,8.871,0,0,1-.791-1.236,11.736,11.736,0,0,1-.637-1.428,11.072,11.072,0,0,0-1.588.65,9.288,9.288,0,0,0,3.016,2.014Zm-3.9-3.043a12,12,0,0,1,2.073-.884,17.7,17.7,0,0,1-.579-3.986h-3.3a9.227,9.227,0,0,0,1.8,4.87Zm10.988,3.043a9.288,9.288,0,0,0,3.015-2.015,11.068,11.068,0,0,0-1.586-.65,11.738,11.738,0,0,1-.637,1.428,8.862,8.862,0,0,1-.791,1.236Zm.145-3.016a16.735,16.735,0,0,0-3.025-.379v3.993a4.661,4.661,0,0,0,2.5-2.458,10.118,10.118,0,0,0,.524-1.155Zm1.685-.912a12,12,0,0,1,2.073.884,9.227,9.227,0,0,0,1.8-4.87h-3.3a17.7,17.7,0,0,1-.579,3.986Zm.579-5.311h3.3a9.226,9.226,0,0,0-1.8-4.87,12,12,0,0,1-2.073.884A17.749,17.749,0,0,1,16.551,9.937Zm-.98-5.247a11.731,11.731,0,0,0-.639-1.43,8.867,8.867,0,0,0-.791-1.236A9.3,9.3,0,0,1,17.155,4.04a11.088,11.088,0,0,1-1.586.65Zm-1.286.35a16.867,16.867,0,0,1-3.024.38V1.427a4.661,4.661,0,0,1,2.5,2.458A10.119,10.119,0,0,1,14.285,5.04Z" fill="#b3b3b3" fill-rule="evenodd"/>
        </g>
      </g>
    </g>
  </g>
</svg>
