<svg xmlns="http://www.w3.org/2000/svg" width="31.959" height="30" viewBox="0 0 31.959 30">
  <path id="Tracé_2" data-name="Tracé 2" d="M31.166,3H14.671V8.155h4.124v2.062H5.393A3.038,3.038,0,0,0,2.3,13.309v11.34a3.038,3.038,0,0,0,3.093,3.093H6.424V33l6.495-5.258h6.907V20.526h11.34a3.038,3.038,0,0,0,3.093-3.093V6.093A3.038,3.038,0,0,0,31.166,3ZM13.434,23.515l-.515-1.649h-3.2L9.1,23.515H6.63l3.4-9.175h2.474l3.4,9.175ZM29.1,15.371v2.062A9.308,9.308,0,0,1,25.084,16.4a11.05,11.05,0,0,1-4.124,1.031l-.1-2.062a7.848,7.848,0,0,0,2.165-.309,7.043,7.043,0,0,1-1.856-3.3h2.165a5.183,5.183,0,0,0,1.649,2.268,5.333,5.333,0,0,0,1.959-3.814H20.754V8.155h3.093V6.093h2.062V8.155h3.4l.1,1.031a7.838,7.838,0,0,1-2.268,5.876A7.005,7.005,0,0,0,29.1,15.371Z" transform="translate(-2.3 -3)" fill="#fff"/>
</svg>
