<svg xmlns="http://www.w3.org/2000/svg" width="24.222" height="24.222" viewBox="0 0 24.222 24.222">
  <path id="Tracé_10085" data-name="Tracé 10085" d="M1437,249.463H1418a2.608,2.608,0,0,0-2.607,2.607v19.008a2.608,2.608,0,0,0,2.607,2.607H1437a2.607,2.607,0,0,0,2.607-2.607V252.07A2.607,2.607,0,0,0,1437,249.463Zm-13.3,18.582c0,.17-.041.221-.217.218-.864-.009-1.73-.007-2.594,0-.139,0-.182-.034-.18-.176q0-4.623,0-9.247c0-.127.031-.173.167-.171.877,0,1.755.007,2.632,0,.168,0,.19.064.19.208q-.007,2.3,0,4.605C1423.7,265,1423.7,266.523,1423.7,268.044Zm-1.494-10.7a1.727,1.727,0,1,1,1.728-1.734A1.74,1.74,0,0,1,1422.209,257.348Zm6.4,5.3a6.116,6.116,0,0,0-.045.75c0,1.554,0,3.108,0,4.662,0,.155-.038.2-.2.2q-1.308-.011-2.615,0c-.141,0-.18-.037-.18-.177q.007-4.616,0-9.231c0-.152.05-.187.194-.186q1.241.009,2.482,0c.152,0,.192.047.189.19-.009.368,0,.737,0,1.1.2-.224.363-.453.568-.646a3.13,3.13,0,0,1,2.247-.886,5.219,5.219,0,0,1,1.414.171,2.767,2.767,0,0,1,1.961,2.062,8.7,8.7,0,0,1,.26,2.364c0,1.679,0,3.359,0,5.037,0,.158-.044.2-.2.2q-1.3-.011-2.6,0c-.152,0-.186-.045-.185-.19q.007-2.395,0-4.793a4.3,4.3,0,0,0-.139-1.191,1.338,1.338,0,0,0-1.472-1.043A1.609,1.609,0,0,0,1428.61,262.651Z" transform="translate(-1415.388 -249.463)" fill="#fff"/>
</svg>
