<svg xmlns="http://www.w3.org/2000/svg" width="25.5" height="23.992" viewBox="0 0 25.5 23.992">
  <g id="Groupe_1087" data-name="Groupe 1087" transform="translate(0.083 1.508)">
    <g id="Groupe_36" data-name="Groupe 36" transform="translate(0 0)">
      <rect id="Rectangle_178" data-name="Rectangle 178" width="23" height="22" transform="translate(-0.083 -0.008)" fill="none"/>
      <path id="alarm-bell" d="M46.921,19.776,45.774,16.91a5.582,5.582,0,0,1-.4-2.087V9.636A8.014,8.014,0,0,0,39.71,2a2.4,2.4,0,0,0-4.736,0,8.014,8.014,0,0,0-5.662,7.633v5.186a5.582,5.582,0,0,1-.4,2.087l-1.146,2.867a.8.8,0,0,0,.746,1.1h6.1a3.121,3.121,0,0,0,5.458,0h6.1a.8.8,0,0,0,.746-1.1ZM29.7,19.271l.707-1.766a7.193,7.193,0,0,0,.517-2.683V9.636a6.424,6.424,0,1,1,12.848,0v5.186a7.193,7.193,0,0,0,.517,2.683l.707,1.766Z" transform="translate(-26.095 0)" fill="#fff"/>
    </g>
    <g id="Groupe_37" data-name="Groupe 37" transform="translate(15.167 0.408)">
      <g id="Ellipse_9" data-name="Ellipse 9" transform="translate(-0.25 -0.417)" fill="#d6001b" stroke="#f4f8fb" stroke-width="1.5">
        <ellipse cx="4.5" cy="5" rx="4.5" ry="5" stroke="none"/>
        <ellipse cx="4.5" cy="5" rx="5.25" ry="5.75" fill="none"/>
      </g>
      <path id="Tracé_98" data-name="Tracé 98" d="M-2.435-2.656A10.831,10.831,0,0,0-.567-4.221a2.205,2.205,0,0,0,.7-1.421.94.94,0,0,0-.191-.619.755.755,0,0,0-.615-.23.79.79,0,0,0-.662.284,1.416,1.416,0,0,0-.252.81h-.8a1.909,1.909,0,0,1,.536-1.331A1.731,1.731,0,0,1-.607-7.19,1.639,1.639,0,0,1,.555-6.8,1.408,1.408,0,0,1,.976-5.715,2.169,2.169,0,0,1,.634-4.592,4.674,4.674,0,0,1-.233-3.545a7.288,7.288,0,0,1-1.087.824H1.091v.669H-2.435Z" transform="translate(4.93 9.252)" fill="#fff"/>
    </g>
  </g>
</svg>
