<svg xmlns="http://www.w3.org/2000/svg" width="25" height="25" viewBox="0 0 25 25">
  <path id="phone-square" d="M20.833,17.334a.744.744,0,0,0-.033-.26.974.974,0,0,0-.293-.269,6.385,6.385,0,0,0-.659-.407q-.4-.219-.772-.431t-.741-.407l-.464-.244q-.081-.049-.309-.212a2.481,2.481,0,0,0-.407-.244.83.83,0,0,0-.342-.081.969.969,0,0,0-.594.334,5.59,5.59,0,0,0-.643.732,6.391,6.391,0,0,1-.627.732.912.912,0,0,1-.545.334.8.8,0,0,1-.269-.057,2.448,2.448,0,0,1-.252-.106q-.1-.049-.277-.155t-.228-.138A12.253,12.253,0,0,1,10.611,14.4a12.937,12.937,0,0,1-2.066-2.775q-.033-.049-.138-.228t-.155-.277a2.289,2.289,0,0,1-.106-.252.824.824,0,0,1-.057-.268.909.909,0,0,1,.334-.545,6.527,6.527,0,0,1,.732-.627,5.69,5.69,0,0,0,.732-.643.965.965,0,0,0,.334-.594.83.83,0,0,0-.081-.342A2.481,2.481,0,0,0,9.9,7.438q-.163-.228-.212-.309-.049-.1-.244-.464t-.407-.741q-.212-.375-.431-.773A6.534,6.534,0,0,0,8.2,4.492.956.956,0,0,0,7.926,4.2a.777.777,0,0,0-.26-.033,4.291,4.291,0,0,0-1.644.358,2.936,2.936,0,0,0-1.3,1.538,5.169,5.169,0,0,0-.553,2.125,4,4,0,0,0,.041.553q.041.293.081.5a5.2,5.2,0,0,0,.146.537q.106.334.163.48t.2.537q.146.391.179.488A14.587,14.587,0,0,0,8.5,16.494a14.609,14.609,0,0,0,5.217,3.526q.1.033.488.179l.537.2q.147.057.48.163a5.108,5.108,0,0,0,.537.146q.2.04.5.081a3.984,3.984,0,0,0,.553.041,5.168,5.168,0,0,0,2.124-.553,2.936,2.936,0,0,0,1.538-1.3,4.291,4.291,0,0,0,.358-1.644ZM25,4.688V20.313A4.695,4.695,0,0,1,20.313,25H4.688a4.514,4.514,0,0,1-3.312-1.375A4.518,4.518,0,0,1,0,20.313V4.688A4.518,4.518,0,0,1,1.375,1.375,4.51,4.51,0,0,1,4.688,0H20.313a4.514,4.514,0,0,1,3.312,1.375A4.516,4.516,0,0,1,25,4.688Z" fill="#fff"/>
</svg>
