<svg xmlns="http://www.w3.org/2000/svg" width="17.303" height="24.653" viewBox="0 0 17.303 24.653">
  <path id="pin" d="M8.623.174a8.409,8.409,0,0,1,6.134,2.517A8.266,8.266,0,0,1,17.3,8.8a11.8,11.8,0,0,1-.9,4.138,23.987,23.987,0,0,1-2.17,4.34q-1.273,2-2.546,3.762T9.549,23.843l-.926.984q-.347-.347-.926-1.042T5.643,21.094q-1.475-2-2.633-3.877A26.432,26.432,0,0,1,.926,12.963,11.71,11.71,0,0,1,0,8.8a8.313,8.313,0,0,1,2.517-6.1A8.314,8.314,0,0,1,8.623.174Zm0,11.69a3.053,3.053,0,0,0,2.2-.9,3.006,3.006,0,0,0,0-4.34,3.056,3.056,0,0,0-2.2-.9A3.063,3.063,0,0,0,5.556,8.8a3.063,3.063,0,0,0,3.067,3.067Z" transform="translate(0 -0.174)" fill="#fff"/>
</svg>
