<svg xmlns="http://www.w3.org/2000/svg" width="30" height="30" viewBox="0 0 30 30" fill="#fff">
  <g id="Groupe_1" data-name="Groupe 1" transform="translate(-1637 -118)">
    <path id="Ellipse_4" data-name="Ellipse 4" d="M15,4a11,11,0,1,0,7.778,3.222A10.928,10.928,0,0,0,15,4m0-4A15,15,0,1,1,0,15,15,15,0,0,1,15,0Z" transform="translate(1637 118)" />
    <path id="Soustraction_1" data-name="Soustraction 1" d="M26.727,24.353h0a14,14,0,0,0-23.454,0A15,15,0,0,1,4.393,4.393,15,15,0,0,1,30,15a14.838,14.838,0,0,1-3.272,9.352ZM15,5a6,6,0,1,0,6,6A6.007,6.007,0,0,0,15,5Z" transform="translate(1637 118)"/>
  </g>
</svg>
