<svg xmlns="http://www.w3.org/2000/svg" width="25.001" height="25" viewBox="0 0 25.001 25">
  <path id="network" d="M.03,13.133a3.161,3.161,0,0,1-.029-.6v-.057c3.4-.292,7.109-1.149,9.868-3.121A2.577,2.577,0,0,0,12.186,9.3a12.106,12.106,0,0,0,5.149,3.321,2.47,2.47,0,0,0,1,1.231,11.485,11.485,0,0,1-2.317,3.636,2.73,2.73,0,0,0-4.062,1.231A15.414,15.414,0,0,1,.03,13.132Zm11.9,7.386a14.178,14.178,0,0,1-7.322,1.718A13.2,13.2,0,0,1,.544,16.253a17.861,17.861,0,0,0,11.384,4.266Zm5.177-.344A16.264,16.264,0,0,0,24.2,16.911,12.656,12.656,0,0,1,7.323,23.925a16.37,16.37,0,0,0,5.721-1.975,2.763,2.763,0,0,0,4.062-1.775Zm4.92-6.985c1.025-.076,2.024-.151,2.975-.315,0,.256-.028.508-.029.744A13.766,13.766,0,0,1,17.821,18.2a14.032,14.032,0,0,0,2.26-3.922A2.827,2.827,0,0,0,22.026,13.19Zm.458-1.832a2.73,2.73,0,0,0-1.2-1.975,29.318,29.318,0,0,0,.086-5.669,12.979,12.979,0,0,1,3.547,7.329,17.076,17.076,0,0,1-2.431.315ZM8.553,8.065A18.6,18.6,0,0,1,.144,10.671,12.635,12.635,0,0,1,8.153.794a12.819,12.819,0,0,0,1,4.151,2.715,2.715,0,0,0-.6,3.121Zm4.92-2.119A16.2,16.2,0,0,0,16.505.678a12.339,12.339,0,0,1,2.889,1.4,30.37,30.37,0,0,1,.114,6.9,2.788,2.788,0,0,0-2.2,1.718,10.884,10.884,0,0,1-3.89-2.691,2.881,2.881,0,0,0,.057-2.061Zm-2.66-1.689A10.584,10.584,0,0,1,9.926.278,11.855,11.855,0,0,1,14.76.221,15.83,15.83,0,0,1,12.3,4.573c-.34-.145-1.168-.469-1.487-.315Z" transform="translate(0 0)" fill="#fff"/>
</svg>
