<svg xmlns="http://www.w3.org/2000/svg" width="24.28" height="24.222" viewBox="0 0 24.28 24.222">
  <path id="twitter-box" d="M19.049,9.044a6.14,6.14,0,0,0,1.592-1.706,6.945,6.945,0,0,1-1.763.512,3.534,3.534,0,0,0,1.365-1.82,6.917,6.917,0,0,1-2.1.8,2.7,2.7,0,0,0-1.763-.938,3.632,3.632,0,0,0-2.018.284,3.3,3.3,0,0,0-1.507,1.422,2.9,2.9,0,0,0-.284,2.189,9.743,9.743,0,0,1-6.71-3.354A3.181,3.181,0,0,0,5.6,8.9,2.956,2.956,0,0,0,6.823,10.75a4.205,4.205,0,0,1-1.365-.4,3.255,3.255,0,0,0,2.5,3.241,3.312,3.312,0,0,1-1.365.057,3.218,3.218,0,0,0,3.014,2.275,5.546,5.546,0,0,1-2.218,1.108,6.317,6.317,0,0,1-2.558.2,9.04,9.04,0,0,0,5.231,1.479A8.99,8.99,0,0,0,16.518,15.9,9.838,9.838,0,0,0,19.049,9.044ZM21.835.174a2.359,2.359,0,0,1,1.734.71,2.3,2.3,0,0,1,.711,1.677V22.009a2.294,2.294,0,0,1-.71,1.677,2.361,2.361,0,0,1-1.735.71H2.445a2.359,2.359,0,0,1-1.734-.71A2.294,2.294,0,0,1,0,22.009V2.562A2.294,2.294,0,0,1,.71.884,2.359,2.359,0,0,1,2.445.174Z" transform="translate(0 -0.174)" fill="#fff"/>
</svg>
