<svg id="social-youtube" xmlns="http://www.w3.org/2000/svg" width="24.222" height="24.222" viewBox="0 0 24.222 24.222">
  <path id="Tracé_12" data-name="Tracé 12" d="M11.251,17.495c-.169.238-.328.356-.481.356-.1,0-.16-.059-.178-.177a2.4,2.4,0,0,1-.007-.3V14.287h-.76v3.318a2.134,2.134,0,0,0,.067.624.466.466,0,0,0,.49.312,1.219,1.219,0,0,0,.869-.515v.458h.762v-4.2h-.763Z" transform="translate(-0.971 1.54)" fill="#fff"/>
  <path id="Tracé_13" data-name="Tracé 13" d="M6.974,13.6h.894v4.841h.846V13.6h.912V12.8H6.974Z" transform="translate(-2.064 1.389)" fill="#fff"/>
  <path id="Tracé_14" data-name="Tracé 14" d="M12.308,9.74c.248,0,.366-.2.366-.589V7.366c0-.392-.118-.588-.366-.588s-.367.2-.367.588V9.151C11.941,9.543,12.06,9.74,12.308,9.74Z" transform="translate(-0.443 -2.114)" fill="#fff"/>
  <path id="Tracé_15" data-name="Tracé 15" d="M14.308,14.19a1.032,1.032,0,0,0-.786.455v-1.84h-.761v5.634h.761v-.407a1.034,1.034,0,0,0,.786.465.6.6,0,0,0,.608-.472,3.378,3.378,0,0,0,.077-.846V15.508a3.262,3.262,0,0,0-.077-.844.6.6,0,0,0-.608-.474Zm-.076,3.049c0,.379-.111.566-.331.566a.539.539,0,0,1-.379-.187V15.059a.548.548,0,0,1,.379-.185c.22,0,.331.195.331.573v1.791Z" transform="translate(0.214 1.415)" fill="#fff"/>
  <path id="Tracé_16" data-name="Tracé 16" d="M16.822,14.234a1.079,1.079,0,0,0-.911.431,1.63,1.63,0,0,0-.235.988v1.471a1.626,1.626,0,0,0,.244.986,1.088,1.088,0,0,0,.92.43,1.052,1.052,0,0,0,.919-.454,1.092,1.092,0,0,0,.177-.456c.007-.077.016-.245.016-.49v-.111h-.776a4.983,4.983,0,0,1-.016.515.327.327,0,0,1-.34.305c-.262,0-.389-.194-.389-.582v-.744h1.521v-.869a1.651,1.651,0,0,0-.235-.988,1.055,1.055,0,0,0-.9-.43Zm.372,1.655h-.761V15.5q0-.583.382-.582c.252,0,.379.195.379.582Z" transform="translate(1.398 1.537)" fill="#fff"/>
  <path id="Tracé_17" data-name="Tracé 17" d="M25.367,3.5H5.855A2.361,2.361,0,0,0,3.5,5.855V25.367a2.361,2.361,0,0,0,2.355,2.355H25.367a2.361,2.361,0,0,0,2.355-2.355V5.855A2.361,2.361,0,0,0,25.367,3.5ZM17.825,7.022h1.064v4.337a2.408,2.408,0,0,0,.013.416c.024.166.108.25.25.25.214,0,.437-.166.674-.5v-4.5h1.067v5.891H19.827v-.642A1.716,1.716,0,0,1,18.608,13a.654.654,0,0,1-.688-.439,2.967,2.967,0,0,1-.094-.876V7.022Zm-4.033,1.92a2.293,2.293,0,0,1,.334-1.387,1.583,1.583,0,0,1,2.488,0,2.317,2.317,0,0,1,.331,1.387v2.064a2.315,2.315,0,0,1-.331,1.386,1.585,1.585,0,0,1-2.488,0,2.285,2.285,0,0,1-.334-1.386ZM10.936,5.007l.841,3.1.807-3.1h1.2l-1.424,4.7v3.2H11.173V9.71a19.693,19.693,0,0,0-.723-2.5c-.249-.733-.51-1.471-.759-2.2h1.245ZM24.046,24.2a2.207,2.207,0,0,1-1.889,1.717,58.653,58.653,0,0,1-6.545.242,58.653,58.653,0,0,1-6.545-.242A2.206,2.206,0,0,1,7.178,24.2a18.751,18.751,0,0,1-.3-4.133,18.747,18.747,0,0,1,.308-4.133A2.206,2.206,0,0,1,9.07,14.213a58.653,58.653,0,0,1,6.545-.242,58.653,58.653,0,0,1,6.545.242A2.207,2.207,0,0,1,24.05,15.93a18.757,18.757,0,0,1,.3,4.133,18.677,18.677,0,0,1-.307,4.133Z" transform="translate(-3.5 -3.5)" fill="#fff"/>
</svg>
