<svg xmlns="http://www.w3.org/2000/svg" xmlns:xlink="http://www.w3.org/1999/xlink" width="58.001" height="57.961" viewBox="0 0 58.001 57.961">
  <defs>
    <filter id="website" x="0" y="0" width="58.001" height="57.961" filterUnits="userSpaceOnUse">
      <feOffset dy="3" input="SourceAlpha"/>
      <feGaussianBlur stdDeviation="3" result="blur"/>
      <feFlood flood-opacity="0.161"/>
      <feComposite operator="in" in2="blur"/>
      <feComposite in="SourceGraphic"/>
    </filter>
  </defs>
  <g transform="matrix(1, 0, 0, 1, 0, 0)" filter="url(#website)">
    <path id="website-2" data-name="website" d="M34.414,12.539a3.3,3.3,0,0,0-.586-.078,3.556,3.556,0,0,0-2.5.977,45.137,45.137,0,0,0-4.453-1.719,59.028,59.028,0,0,0-7.109-1.8,3.872,3.872,0,0,0-1.055-1.563A43.19,43.19,0,0,1,21.328,0a20.115,20.115,0,0,1,15.7,9.414,39.82,39.82,0,0,0-2.617,3.125ZM16.289,7.461a3.618,3.618,0,0,0-1.914.547A45.732,45.732,0,0,0,8.008,4.024,19.49,19.49,0,0,1,18.867,0a40.464,40.464,0,0,0-2.461,7.461ZM2.734,9.883A20.958,20.958,0,0,1,6.093,5.664,48.206,48.206,0,0,1,11.6,9.023a32.965,32.965,0,0,0-8.867.859Zm9.805,1.563a3.614,3.614,0,0,0,.84,2.129,3.682,3.682,0,0,0,1.894,1.23q-.234,2.734-.234,5.195,0,1.719.117,3.945a3.723,3.723,0,0,0-1.523.938A36.006,36.006,0,0,1,9.57,23.008,3.886,3.886,0,0,0,10,21.25a3.614,3.614,0,0,0-1.094-2.656A3.621,3.621,0,0,0,6.25,17.5,3.591,3.591,0,0,0,3.4,18.828a26.938,26.938,0,0,1-2.93-3.086,17.547,17.547,0,0,1,1.055-3.32,34.012,34.012,0,0,1,11.016-.977Zm-10,10.117A3.749,3.749,0,0,0,6.25,25a3.213,3.213,0,0,0,.938-.156,34.789,34.789,0,0,0,5.352,2.5V27.5a3.61,3.61,0,0,0,1.035,2.6,3.683,3.683,0,0,0,2.558,1.152,42.182,42.182,0,0,0,2.734,8.711,19.7,19.7,0,0,1-7.383-1.9,19.753,19.753,0,0,1-10-10.566A19.444,19.444,0,0,1,0,20q0-.039.039-1.055a21.405,21.405,0,0,0,2.5,2.617ZM19.57,29.258a45.975,45.975,0,0,0,5.664.664,4.337,4.337,0,0,0,.859,1.445A48.819,48.819,0,0,0,25,39.336a20.815,20.815,0,0,1-3.672.625,44.348,44.348,0,0,1-2.852-9.453,3.189,3.189,0,0,0,1.094-1.25Zm12.109,1.875a3.642,3.642,0,0,0,.7-1.328,51.9,51.9,0,0,0,5.508-.742,19.868,19.868,0,0,1-5.156,6.367A34.359,34.359,0,0,0,31.679,31.133Zm-6.367-3.711a37.212,37.212,0,0,1-5.391-.7,3.576,3.576,0,0,0-2.227-2.695q-.156-2.305-.156-4.023,0-2.578.234-5.352a.379.379,0,0,0,.195-.078.4.4,0,0,1,.156-.078q1.523,1.484,2.656,2.734a37.727,37.727,0,0,1,5.781,8.516,3.817,3.817,0,0,0-1.25,1.68ZM28.789,32.5q.078,0,.43-.039a34.725,34.725,0,0,1,.977,4.727,22.507,22.507,0,0,1-2.734,1.328,47.771,47.771,0,0,1,.938-6.055q.313.039.391.039Zm-.195-9.336q-.039.078-.1.234t-.1.234a42.163,42.163,0,0,0-5.781-8.086q-1.211-1.367-2.891-2.969.039,0,.059-.059l.02-.059A56.847,56.847,0,0,1,26.094,14.1a39.155,39.155,0,0,1,4.023,1.563,3.3,3.3,0,0,0-.078.586,3.594,3.594,0,0,0,.7,2.148,41.672,41.672,0,0,0-2.148,4.766ZM30.43,25.43q.469-1.367.469-1.406a44.611,44.611,0,0,1,1.953-4.18,3.324,3.324,0,0,0,.977.156,3.579,3.579,0,0,0,2.383-.9,38.96,38.96,0,0,1,3.75,2.969,19.693,19.693,0,0,1-.938,4.3,53.574,53.574,0,0,1-6.758.938,3.491,3.491,0,0,0-1.836-1.875Zm7.148-9.219a3.623,3.623,0,0,0-.859-2.344,24.759,24.759,0,0,1,1.641-1.914A19.7,19.7,0,0,1,40,18.555q-1.289-.977-2.5-1.758a2.805,2.805,0,0,0,.078-.586Z" transform="translate(9 6)" fill="#02cbcb"/>
  </g>
</svg>
