<svg id="calendar-date-fill" xmlns="http://www.w3.org/2000/svg" width="28.147" height="28.147" viewBox="0 0 28.147 28.147">
  <path id="Tracé_208" data-name="Tracé 208" d="M7.037.88a.88.88,0,1,0-1.759,0v.88H3.518A3.518,3.518,0,0,0,0,5.278V7.037H28.147V5.278a3.518,3.518,0,0,0-3.518-3.518H22.869V.88a.88.88,0,0,0-1.759,0v.88H7.037ZM0,8.8H28.147V24.629a3.518,3.518,0,0,1-3.518,3.518H3.518A3.518,3.518,0,0,1,0,24.629ZM16.424,22.5a2.8,2.8,0,0,1-3-2.476h1.2a1.744,1.744,0,0,0,1.849,1.443c1.485,0,2.288-1.492,2.3-3.807h-.048a2.453,2.453,0,0,1-2.433,1.39,2.917,2.917,0,0,1-2.948-3.114A3.091,3.091,0,0,1,16.5,12.754c2.062,0,3.436,1.291,3.436,4.694,0,3.176-1.305,5.051-3.518,5.051Zm.116-4.475a2.061,2.061,0,0,0,2.083-2.076,1.96,1.96,0,0,0-2.041-2.164,1.99,1.99,0,0,0-2.055,2.129,1.937,1.937,0,0,0,2.013,2.111Zm-5.2-5.084v9.38H10.151v-8.11h-.021c-.51.274-1.554.915-2.213,1.367V14.355a22.166,22.166,0,0,1,2.309-1.416h1.112Z" fill="#02cbcb" fill-rule="evenodd"/>
</svg>
