<svg xmlns="http://www.w3.org/2000/svg" xmlns:xlink="http://www.w3.org/1999/xlink" width="58" height="57.999" viewBox="0 0 58 57.999">
  <defs>
    <filter id="instagram" x="0" y="0" width="58" height="57.999" filterUnits="userSpaceOnUse">
      <feOffset dy="3" input="SourceAlpha"/>
      <feGaussianBlur stdDeviation="3" result="blur"/>
      <feFlood flood-opacity="0.161"/>
      <feComposite operator="in" in2="blur"/>
      <feComposite in="SourceGraphic"/>
    </filter>
  </defs>
  <g transform="matrix(1, 0, 0, 1, 0, 0)" filter="url(#instagram)">
    <path id="instagram-2" data-name="instagram" d="M26.667,20A6.668,6.668,0,0,0,20,13.333,6.668,6.668,0,0,0,13.333,20,6.668,6.668,0,0,0,20,26.667,6.668,6.668,0,0,0,26.667,20Zm3.594,0A10.226,10.226,0,0,1,20,30.261,10.226,10.226,0,0,1,9.739,20,10.226,10.226,0,0,1,20,9.739,10.226,10.226,0,0,1,30.261,20ZM33.074,9.323A2.4,2.4,0,1,1,28.985,7.63a2.4,2.4,0,0,1,4.089,1.693ZM20,3.594l-1.992-.013q-1.81-.013-2.747,0t-2.513.078a20.649,20.649,0,0,0-2.682.26A10.444,10.444,0,0,0,8.2,4.4,6.812,6.812,0,0,0,4.4,8.2a10.5,10.5,0,0,0-.482,1.862,20.441,20.441,0,0,0-.26,2.682q-.064,1.575-.078,2.513t0,2.747q.014,1.809.013,1.992t-.013,1.992q-.012,1.809,0,2.747t.078,2.513a20.911,20.911,0,0,0,.26,2.682A10.329,10.329,0,0,0,4.4,31.8a6.812,6.812,0,0,0,3.8,3.8,10.5,10.5,0,0,0,1.862.482,20.441,20.441,0,0,0,2.682.26q1.575.064,2.513.078t2.747,0Q19.816,36.4,20,36.406l1.992.013q1.809.012,2.747,0t2.513-.078a20.911,20.911,0,0,0,2.682-.26A10.274,10.274,0,0,0,31.8,35.6a6.812,6.812,0,0,0,3.8-3.8,10.5,10.5,0,0,0,.482-1.862,20.441,20.441,0,0,0,.26-2.682q.064-1.575.078-2.513t0-2.747Q36.4,20.184,36.4,20t.013-1.992q.012-1.809,0-2.747t-.078-2.513a20.911,20.911,0,0,0-.26-2.682A10.455,10.455,0,0,0,35.6,8.2a6.812,6.812,0,0,0-3.8-3.8,10.5,10.5,0,0,0-1.862-.482,20.441,20.441,0,0,0-2.682-.26q-1.575-.064-2.513-.078t-2.747,0q-1.809.014-1.992.013ZM40,20q0,5.964-.13,8.255-.26,5.417-3.229,8.385t-8.385,3.229Q25.964,40,20,40t-8.255-.13q-5.417-.26-8.385-3.229T.13,28.255Q0,25.963,0,20t.13-8.255Q.39,6.328,3.359,3.36T11.745.13Q14.037,0,20,0t8.255.13q5.417.26,8.385,3.229t3.229,8.385Q40,14.036,40,20Z" transform="translate(9 6)" fill="#02cbcb"/>
  </g>
</svg>
