<svg xmlns="http://www.w3.org/2000/svg" xmlns:xlink="http://www.w3.org/1999/xlink" width="58.857" height="51.204" viewBox="0 0 58.857 51.204">
  <defs>
    <filter id="Path_5" x="0" y="0" width="58.857" height="51.204" filterUnits="userSpaceOnUse">
      <feOffset dy="3" input="SourceAlpha"/>
      <feGaussianBlur stdDeviation="3" result="blur"/>
      <feFlood flood-opacity="0.161"/>
      <feComposite operator="in" in2="blur"/>
      <feComposite in="SourceGraphic"/>
    </filter>
  </defs>
  <g id="Group_3" data-name="Group 3" transform="translate(69 117)">
    <g transform="matrix(1, 0, 0, 1, -69, -117)" filter="url(#Path_5)">
      <path id="Path_5-2" data-name="Path 5" d="M40.857,51.934a17.462,17.462,0,0,1-4.827,1.323,8.329,8.329,0,0,0,3.685-4.63A16.741,16.741,0,0,1,34.4,50.655a8.371,8.371,0,0,0-14.489,5.72,8.624,8.624,0,0,0,.2,1.909A23.717,23.717,0,0,1,2.848,49.515,8.371,8.371,0,0,0,5.421,60.71a8.271,8.271,0,0,1-3.787-1.032v.092A8.415,8.415,0,0,0,8.345,68a8.37,8.37,0,0,1-2.192.275,7.406,7.406,0,0,1-1.594-.144,8.456,8.456,0,0,0,7.827,5.836A16.831,16.831,0,0,1,2,77.537a15.687,15.687,0,0,1-2-.1A23.582,23.582,0,0,0,12.849,81.2,23.675,23.675,0,0,0,36.69,57.371c0-.371-.012-.727-.03-1.082A16.709,16.709,0,0,0,40.857,51.934Z" transform="translate(9 -42)" fill="#02cbcb"/>
    </g>
  </g>
</svg>
